STARTFONT 2.1
COMMENT
COMMENT Converted from OpenType font "Font 90 Icons.ttf" by "otf2bdf 3.0".
COMMENT
FONT -FreeType-Font 90 Icons-Medium-R-Normal--46-330-100-100-P-171-ISO10646-1
SIZE 33 100 100
FONTBOUNDINGBOX 49 47 0 -9
STARTPROPERTIES 19
FOUNDRY "FreeType"
FAMILY_NAME "Font 90 Icons"
WEIGHT_NAME "Medium"
SLANT "R"
SETWIDTH_NAME "Normal"
ADD_STYLE_NAME ""
PIXEL_SIZE 46
POINT_SIZE 330
RESOLUTION_X 100
RESOLUTION_Y 100
SPACING "P"
AVERAGE_WIDTH 171
CHARSET_REGISTRY "ISO10646"
CHARSET_ENCODING "1"
FONT_ASCENT 38
FONT_DESCENT 9
COPYRIGHT "Typeface © (el-harrak.blogspot.com). <darrati10@gmail.com>. All Rights Reserved"
_OTF_FONTFILE "Font 90 Icons.ttf"
_OTF_PSNAME "Font 90 Icons"
ENDPROPERTIES
CHARS 242
STARTCHAR 0000
ENCODING 0
SWIDTH 0 0
DWIDTH 0 0
BBX 0 0 0 0
BITMAP
ENDCHAR
STARTCHAR 001D
ENCODING 29
SWIDTH 0 0
DWIDTH 0 0
BBX 0 0 0 0
BITMAP
ENDCHAR
STARTCHAR 0020
ENCODING 32
SWIDTH 240 0
DWIDTH 11 0
BBX 0 0 0 0
BITMAP
ENDCHAR
STARTCHAR 0021
ENCODING 33
SWIDTH 981 0
DWIDTH 45 0
BBX 45 44 0 -7
BITMAP
00001FC00000
0001FFFC0000
000FFFCF0000
001FFFF1C000
007FFFFC7000
00FFFFFE3800
01FFFFFE0C00
03FFFFFF0600
07FFFFFF0300
0FFFF8FF8180
0FFFF07F8080
1FFFF07F80C0
3FFFF07F8040
3FFFF07F8060
3FFFF8FF8020
7FFFFFFF0030
7FFFFFFF0030
7FFFFFFE0010
7FFFFFFE0010
FFFFFFFC0010
FFFFFFF00018
FFFFFFC00018
FFFFF8000018
FFFFC0000018
FFFF00000010
FFFE00000010
7FFC00000010
7FF800000030
7FF800000030
7FF800000020
3FF00F000060
3FF00F800060
1FF01F8000C0
1FF00F8000C0
0FF00F800180
07F002000300
07F800000600
03F800000E00
01FC00001C00
00FE00003000
003F0000E000
001F8003C000
0007E01F0000
0000FFF80000
ENDCHAR
STARTCHAR 0022
ENCODING 34
SWIDTH 981 0
DWIDTH 45 0
BBX 45 35 0 -3
BITMAP
0000FFF80000
0001FFFC0000
0001C00C0000
0001800C0000
0001800C0000
0001800C0000
3FFFFFFFFFE0
7FFFFFFFFFF0
7FFFFFFFFFF0
FFFFFFFFFFF8
FFFFFFFFFFF8
FFFFFFFFFFF8
FFFFFFFFFFF8
FFFFFFFFFFF8
FFFFFFFFFFF8
FFFFFFFFFFF8
FFFFFFFFFFF8
FFFFFFFFFFF8
FFFFFFFFFFF8
FFFFFFFFFFF8
FFFFFFFFFFF8
FFFFFFFFFFF8
FFFFFFFFFFF8
FFFFFFFFFFF8
FFFFFFFFFFF8
FFFFFFFFFFF8
FFFFFFFFFFF8
FFFFFFFFFFF8
FFFFFFFFFFF8
FFFFFFFFFFF8
FFFFFFFFFFF8
FFFFFFFFFFF8
7FFFFFFFFFF0
7FFFFFFFFFF0
3FFFFFFFFFE0
ENDCHAR
STARTCHAR 0023
ENCODING 35
SWIDTH 981 0
DWIDTH 45 0
BBX 41 47 2 -9
BITMAP
000FF0000000
003FFE000000
F0FFFFC00000
FBFFFFF00000
FBFFFFFF1C00
FBFFFFFFFC00
FBFFFFFFFC00
F9FFFFFFFE00
79FFFFFFFE00
7DFFFFFFFE00
7DFFFFFFFE00
7DFFFFFFFE00
7CFFFFFFFE00
3CFFFFFFFE00
3EFFFFFFFF00
3EFFFFFFFF00
3EFFFFFFFF00
3E7FFFFFFF00
3E7FFFFFFF00
1E7FFFFFFF00
1F7FFFFFFF80
1F7FF3FFFF80
1F7F001FFF80
1F380007FF80
1F300000FF80
0F2000003F80
0F8000000700
0F8000000000
0F8000000000
0F8000000000
078000000000
07C000000000
07C000000000
07C000000000
07C000000000
07C000000000
03C000000000
03E000000000
03E000000000
03E000000000
03E000000000
01E000000000
01F000000000
01F000000000
01F000000000
01F000000000
00E000000000
ENDCHAR
STARTCHAR 0024
ENCODING 36
SWIDTH 981 0
DWIDTH 45 0
BBX 44 44 0 -7
BITMAP
01C000000000
07F000000000
0FF000000000
1FF800000000
3FFC00000000
7FFE00000000
7FFF00000000
FFFF80000000
FFFFC0000000
FFFFF0000000
7FFFF8000000
3FFFFC000000
1FFFFE000000
0FFFFF800000
07FFFFC00000
03FFFFE00000
01FFFFF00000
00FFFFC00000
007FFF800000
007FFF800000
003FFF000000
001FFE000000
000FFF000000
000FFB800000
0007F1C00000
0003E0E00000
0001C0700000
000080380000
0000001C0000
0000000E0000
000000060000
000000030000
000000008000
000000004000
000000002000
000000001000
000000000800
000000000400
000000000200
000000000100
000000000080
000000000040
000000000020
000000000010
ENDCHAR
STARTCHAR 0025
ENCODING 37
SWIDTH 981 0
DWIDTH 45 0
BBX 43 47 1 -9
BITMAP
00001F000000
00003F800000
00003F800000
00003F800000
00003F800000
0001FFF00000
000FFFFE0000
001FFFFF0000
007FFFFFC000
00FFFFFFE000
3FFFDF7FFF80
7FFE1F0FFFC0
7FFC1F07FFC0
FFF01E01FFC0
7FF00E01FFC0
7FF80E03FFC0
3FFC0E07FF80
1FFE0C0FFF00
1FFF0E1FFF00
1FFF8E3FFF00
1F0FFFFC1F00
3F00FFE01F80
3F007FC01F80
3F007FC01F80
3F007FC01F80
3F01FFF01F80
1F0FFFFE1F00
1FFF8E3FFF00
1FFF0E1FFF00
1FFE0E0FFF00
3FFC0E07FF80
7FF80E03FFC0
7FF01F01FFC0
7FF81F03FFE0
7FFC1F07FFC0
7FFF1F1FFFC0
3DFFFF7FFF80
007FFFFFE000
003FFFFF8000
001FFFFF0000
0007FFFC0000
0001FFF00000
00003F800000
00003F800000
00003F800000
00001F000000
00000E000000
ENDCHAR
STARTCHAR 0026
ENCODING 38
SWIDTH 981 0
DWIDTH 45 0
BBX 45 44 0 -7
BITMAP
00001FC00000
0001FFFC0000
0007FFFF0000
001F801FC000
007E0003F000
00F80000F800
01E03FC03C00
03C0FFF81E00
0783FFFE0F00
0F0FFFFF8700
0E1FFFFFC380
1C3FFFFFE1C0
1C7FFFFFE1C0
387FFFFFF0E0
38F9FFFFF8E0
70FCFFFFF860
71FE7FF9FC70
71FF3FF3FC70
61FF9FE7FC30
E3FFCFCFFC30
E3FFE79FFE30
E3FFF33FFE38
E3FFF8FFFE38
E3FFF87FFE38
E3FFF8FFFE30
63FFFFFFFC30
61FFFFFFFC70
71FFFFFFFC70
71FFFFFFFC70
70FFFFFFF860
38FFFFFFF8E0
387FFFFFF0E0
1C3FFFFFE1C0
1C1FFFFFC3C0
0E0FFFFF8380
0707FFFF0700
0783FFFC0E00
03C0FFF01E00
01F007807800
00780000F000
003E0007E000
001FE03F8000
0007FFFF0000
0000FFF80000
ENDCHAR
STARTCHAR 0027
ENCODING 39
SWIDTH 981 0
DWIDTH 45 0
BBX 44 45 0 -8
BITMAP
0003F8000000
001FFF800000
007FFFC00000
01FFFFF00000
03FFFFF80000
07FFFFFC0000
0FFFFFFE0000
0FFC03FF0000
1FF001FF0000
3FE0E07F8000
3FC0F03FC000
7F81F03FC000
7F01F01FC000
7F01F00FC000
7E01F00FE000
FE3FFF8FE000
FE3FFFCFE000
FE7FFFCFE000
FE3FFF8FE000
7E01F00FE000
7F01F00FE000
7F01F01FC000
7F01F01FC000
3F81F03FC000
3FC0E07F8000
3FE000FF8000
1FF001FFC000
0FFE07FFE000
07FFFFFFF000
07FFFFFFF800
01FFFFFFFC00
00FFFFFFFE00
007FFFFFFF00
001FFF3FFF80
0000E01FFFC0
0000000FFFE0
00000007FFE0
00000003FFF0
00000001FFF0
00000000FFF0
000000007FF0
000000003FF0
000000001FF0
000000000FE0
000000000780
ENDCHAR
STARTCHAR 0028
ENCODING 40
SWIDTH 981 0
DWIDTH 45 0
BBX 45 45 0 -8
BITMAP
0007FE000000
003FFF800000
00FFFFE00000
01FFFFF00000
03FFFFF80000
07FFFFFC0000
0FFFBFFE0000
1FF803FF0000
1FE000FF8000
3FC0007F8000
3F80003FC000
7F80001FC000
7F00001FC000
7F00000FE000
7E00000FE000
FE3FFF8FE000
FE7FFFCFE000
FE7FFFCFE000
FE3FFF8FE000
7E00000FE000
7F00000FE000
7F00001FC000
7F00001FC000
3F80003FC000
3FC0007F8000
1FE000FF8000
1FF801FFC000
0FFE0FFFE000
07FFFFFFF000
03FFFFFFF800
01FFFFFFFC00
00FFFFFFFE00
003FFFFFFF00
000FFE3FFF80
0000001FFFC0
0000000FFFE0
00000007FFF0
00000003FFF0
00000001FFF0
00000000FFF8
000000007FF0
000000003FF0
000000001FF0
000000000FE0
000000000380
ENDCHAR
STARTCHAR 0029
ENCODING 41
SWIDTH 981 0
DWIDTH 45 0
BBX 44 33 0 -2
BITMAP
3FFFFFFFFFF0
7FFFFFFFFFF0
F800000000F0
FC00000001F0
FE00000003F0
FF00000007F0
EF8000000FB0
E7C000001F30
E3E000003E30
E0F000007C30
E0780000F030
E03C0001E030
E01E0003C030
E00F00078030
E007800F0030
E003C01E0030
E001E03C0030
E003F07E0030
E007F8FF0030
E00F7FF78030
E01E3FE3C030
E03C0F81E030
E0780000F030
E0F000007830
E1E000003C30
E3C000001E30
E78000000F30
EF00000007B0
FE00000003F0
FC00000001F0
FFFFFFFFFFF0
7FFFFFFFFFF0
7FFFFFFFFFF0
ENDCHAR
STARTCHAR 002A
ENCODING 42
SWIDTH 981 0
DWIDTH 45 0
BBX 39 47 3 -9
BITMAP
00007C0000
0000FC0000
0000FC0000
0000FC0000
0000FC0000
0000FC0000
0000FC0000
0000FC0000
0000FC0000
0000FC0000
0000FC0000
0000FC0000
01F0FC3E00
01FCFCFE00
01FFFFFE00
00FFFFFC00
007FFFF800
003FFFF000
001FFFE000
3FEFFFDFF8
3FF7FFBFF8
DFFBFF7FF6
EFFDFEFFEE
F7FEFDFFDE
FBFF7BFFBE
FDFFB7FF7E
FEFFFFFEFE
FF7FFFFDFE
FFBFFFFBFE
FFDFFFF7FE
FFEFFFEFFE
FFF7FFDFFE
FFFBFFBFFE
FFF9FF3FFE
FFF6FEDFFE
FFEF7DEFFE
FFDF83F7FE
FFBFFFFBFE
FF7FFFFDFE
FEFFFFFEFE
FDFFFFFF7E
FBFFFFFFBE
F7FFFFFFDE
EFFFFFFFEE
DFFFFFFFF6
3FFFFFFFF8
3FFFFFFFF8
ENDCHAR
STARTCHAR 002B
ENCODING 43
SWIDTH 981 0
DWIDTH 45 0
BBX 44 44 0 -7
BITMAP
FFFFFFFFFFF0
FFFFFFFFFFF0
FFFFFFFFFFF0
FFFFFFFFFFF0
FFFFFFFFFFF0
FFFFFFFFFFF0
F800FFF800F0
F801FFFC00F0
FC03FFFE00F0
FC07FFFF01F0
FC03FFFE01F0
FC01FFFC01F0
FC00FFF801F0
FC80FFF809F0
FCC1FFFC19F0
FFE3FFFE3DF0
FFF7FFFF7FF0
FFFFFFFFFFF0
FFFFFFFFFFF0
FFFFFFFFFFF0
FFFFFFFFFFF0
FFFFFFFFFFF0
FFFFFFFFFFF0
FFFFFFFFFFF0
FFFFFFFFFFF0
FFFFFFFFFFF0
FFFFFFFFFFF0
FFFFFFFFFFF0
FFF3FFFE7FF0
FDE1FFFC3DF0
FCC0FFF819F0
FC007FF001F0
FC00FFF801F0
FC01FFFC01F0
FC03FFFE01F0
FC07FFFF01F0
F803FFFE00F0
F801FFFC00F0
F9FFFFFFF8F0
FFFFFFFFFFF0
FFFFFFFFFFF0
FFFFFFFFFFF0
FFFFFFFFFFF0
FFFFFFFFFFF0
ENDCHAR
STARTCHAR 002C
ENCODING 44
SWIDTH 981 0
DWIDTH 45 0
BBX 45 44 0 -7
BITMAP
000000000800
00000003FC00
0000007FFE00
000000FFFF00
000001FFFF80
000003FFFFC0
000007FFFFE0
00000FFFE7F0
00001FFFC3F8
00003FFF83F0
00007FFFC7F0
0000FFFFEFF0
0001FFFFFFF0
0003FFFFFFF0
0007FFFFFFE0
000FFFFFFFE0
001FFFFFFFE0
003FFFFFFFE0
007FFFFFFFE0
00F9FFFFFFC0
01F0FFFFFF80
03F87FFFFF00
07DC3FFFFE00
0F8E1FFFFC00
1FC70FFFF800
3FE387FFF000
7FF1C3FFE000
FFF8E1FFC000
3FFC70FF8000
1FFE387F0000
0FFF1C3E0000
07FF8E7C0000
03FFC7F80000
01FFE3F00000
00FFF3E00000
007FFFC00000
003FFF800000
001FFF000000
000FFE000000
0007FC000000
0003F8000000
0001F0000000
0000E0000000
000040000000
ENDCHAR
STARTCHAR 002D
ENCODING 45
SWIDTH 981 0
DWIDTH 45 0
BBX 45 44 0 -7
BITMAP
00000F800000
0001FFFC0000
0007FFFF0000
001FC01FC000
007E0003F000
00F80000F800
01E000007C00
03C000001E00
07C000000F00
0FE000060700
0E70000E0380
1E38001E03C0
1C1C003E01C0
380E007E00E0
380700FE00E0
700381FE00E0
700003FE0070
7003FFFE0070
7003FFFE0070
6003FFFE0070
E003FFFE0030
E003FFFE0038
E003FFFE0038
E003FFFE0038
E003FFFE0030
6003FFFE0070
7003FFFE0070
7003FFFE0070
700001FE0070
380001FE00E0
380000FE00E0
3800007E81E0
1C00003EC1C0
1E00001EE3C0
0E00000E7780
070000063F00
078000001E00
03E000003E00
01F000007C00
00FC0001F000
003F0007E000
001FF87FC000
0007FFFF0000
0000FFF80000
ENDCHAR
STARTCHAR 002E
ENCODING 46
SWIDTH 981 0
DWIDTH 45 0
BBX 38 47 4 -9
BITMAP
1FFFFFFFF0
3FFFFFFFF0
3800000030
3800000030
3800000030
3800000030
3800000030
3800000030
3800000030
3800000030
3800000030
3800000030
3800000030
3800000030
3800000030
3800000030
3800000030
3800000030
3800000030
3800000030
3800000030
3800000030
3FFFFFFFF0
1FFFFFFFF0
0000000000
0000000000
1FFFFFFFF0
3FFFFFFFF0
3FFFFFFFF0
3FFFFF01F0
3FFFFF01F0
3FFFFFFFF0
3FFFFFFFF0
3FFFFFFFF0
3FFFFFFFF0
0000300000
0000300000
0000300000
0000300000
0000300000
0000300000
000FFFC000
000FFFC000
000FFFC000
FFFFFFFFFC
FFFFFFFFFC
000FFFC000
ENDCHAR
STARTCHAR 002F
ENCODING 47
SWIDTH 981 0
DWIDTH 45 0
BBX 45 45 0 -8
BITMAP
06001FC00300
07007FF00700
0700FFF80700
0781FFF80E00
0381FFFC0E00
0383FFFC1E00
63C3FFFE1C30
61C3FFFE1C70
71C3FFFE3C70
71E3FFFE3C70
71E3FFFE38F0
78E3FFFE38E0
38E3FFFE78E0
38F3FFFE78E0
38F3FFFE78E0
38F3FFFE79E0
38F3FFFE79E0
3CF3FFFE79E0
3CF3FFFE79E0
3CF3FFFE79E0
38F3FFFE79E0
38F3FFFE78E0
38F3FFFE78E0
38E3FFFE78E0
38E3FFFE38E0
78E3FFFE38E0
71E3FFFE3870
71E3FFFE3C70
71C3FFFC1C70
E1C1FFFC1C38
E3C1FFFC1C30
0380FFF80E00
03807FF00E00
07003FE00F00
07003FE00700
06003FE00300
04003FE00200
00003FE00000
00003FE00000
00003FE00000
00003FE00000
00003FE00000
00003FE00000
00003FC00000
00001FC00000
ENDCHAR
STARTCHAR 0030
ENCODING 48
SWIDTH 981 0
DWIDTH 45 0
BBX 45 45 0 -8
BITMAP
00000F800000
0001FFFC0000
0007FFFF0000
001FFFFFC000
007FFFFFE000
00FFFFFFF800
01FFFFFFFC00
03FFFFFFFE00
07FBFFFCFF00
0FE1FFFC7F00
0FC0FFF81F80
1F80FFF81FC0
1F807FF00FC0
3F007FF007E0
3E003FE007E0
7E003FC003F0
7C001FC003F0
7C001FC001F0
7C003FE001F0
7C0078F001F0
FC00707001F0
FC00603001F8
FFFFE03FFFF8
FFFFE07FFFF8
FFFFF07FFFF0
7FFFF8FFFFF0
7FFFFFFFFFF0
7FFFFFFFFFF0
7FFFE03FFFF0
7FFFC03FFFE0
3FFFC01FFFE0
3FFF800FFFE0
1FFF800FFFC0
1FFF0007FFC0
0FFE0007FF80
07FE0003FF00
07FC0003FF00
03FE0003FE00
01FF800FFC00
00FFFFFFF800
003FFFFFE000
001FFFFFC000
0007FFFF0000
0000FFFC0000
000002000000
ENDCHAR
STARTCHAR 0031
ENCODING 49
SWIDTH 981 0
DWIDTH 45 0
BBX 43 47 1 -9
BITMAP
00007FC00000
00007FC00000
00007FC00000
00007FC00000
00007FC00000
00047FC40000
001C7FC70000
007C7FC78000
00FC7FC7E000
01FC7FC7F000
03FC7FC7F800
07FC7FC7FC00
0FFC7FC7FE00
1FF07FC1FE00
1FE07FC0FF00
3FC07FC07F00
3F807FC03F80
7F807FC03F80
7F007FC01FC0
7E007FC01FC0
FE007FC00FC0
FE007FC00FE0
FE007FC00FE0
FC007FC00FE0
FC007FC00FE0
FC007FC007E0
FC0000000FE0
FC0000000FE0
FE0000000FE0
FE0000000FE0
FE0000000FC0
7F0000001FC0
7F0000001FC0
7F8000003F80
3F8000003F80
3FC000007F00
1FE00000FF00
0FF00001FE00
0FFC0007FE00
07FF001FFC00
03FFF3FFF800
01FFFFFFF000
00FFFFFFE000
003FFFFF8000
001FFFFE0000
0007FFF80000
00007FC00000
ENDCHAR
STARTCHAR 0032
ENCODING 50
SWIDTH 981 0
DWIDTH 45 0
BBX 43 47 1 -9
BITMAP
00001F000000
00003F800000
00003F800000
00007F800000
00007F800000
00003F800000
00003F800000
00003F800000
00003F800000
00003F000000
3E003F000F80
7F801F003FC0
7FC01F007FC0
FFE01E00FFC0
7FF00E01FFC0
7FF80E03FFC0
3FFC0E07FF80
1FFE0C0FFE00
03FF0C1FF800
00FF8E3FC000
000FFFFC0000
0000FFE00000
00007FC00000
00007FC00000
00007FC00000
0001FFF00000
000FFFFE0000
00FF8E3FE000
07FF0E1FFC00
1FFE0E0FFF00
3FFC0E07FF80
7FF80E03FFC0
7FE01E01FFC0
FFC01F00FFE0
7F801F007FC0
7F001F001FC0
3C003F000F80
00003F800000
00003F800000
00003F800000
00003F800000
00003F800000
00003F800000
00003F800000
00003F800000
00003F000000
00000E000000
ENDCHAR
STARTCHAR 0033
ENCODING 51
SWIDTH 981 0
DWIDTH 45 0
BBX 44 42 0 -6
BITMAP
000002000000
000002000000
000006000000
000007000000
00000F000000
00000F800000
00001F800000
00001FC00000
00003FC00000
00003FE00000
00007FE00000
00007FF00000
0000FFF00000
0000FFF80000
0007FFFE0000
01FFFFFFFC00
FFFFFFFFFFF0
3FFFFFFFFFE0
1FFFFFFFFFC0
0FFFFFFFFF80
07FFFFFFFF00
03FFFFFFFE00
01FFFFFFFC00
00FFFFFFF800
007FFFFFF000
003FFFFFE000
001FFFFFC000
001FFFFFC000
001FFFFFC000
001FFFFFC000
001FFFFFC000
001FFFFFC000
003FFFFFC000
003FFFFFE000
003FFFFFE000
003FFDFFE000
003FF07FE000
003FC01FE000
007F0007E000
007C0001F000
007000007000
004000003000
ENDCHAR
STARTCHAR 0034
ENCODING 52
SWIDTH 981 0
DWIDTH 45 0
BBX 44 33 0 -2
BITMAP
1FFFFFFFFFC0
3FFFFFFFFFC0
1FFFFFFFFFC0
4FFFFFFFFF90
E7FFFFFFFF70
F3FFFFFFFEF0
F9FFFFFFFDF0
FCFFFFFFFBF0
FE7FFFFFF7F0
FF3FFFFFEFF0
FF9FFFFFDFF0
FFCFFFFFBFF0
FFE7FFFF7FF0
FFF3FFFEFFF0
FFF9FFFDFFF0
FFFCFFFBFFF0
FFFE7FF3FFF0
FFFE3FE3FFF0
FFFD9FCDFFF0
FFFBCF9EFFF0
FFF7E03F7FF0
FFEFFDFFBFF0
FFDFFFFFDFF0
FFBFFFFFEFF0
FF7FFFFFF7F0
FEFFFFFFFBF0
FDFFFFFFFDF0
FBFFFFFFFEF0
F7FFFFFFFF70
EFFFFFFFFFB0
1FFFFFFFFFC0
3FFFFFFFFFC0
1FFFFFFFFF80
ENDCHAR
STARTCHAR 0035
ENCODING 53
SWIDTH 981 0
DWIDTH 45 0
BBX 44 35 0 -4
BITMAP
000002000000
00000F87E000
00001DC7F000
000078E7F000
0000E23FF000
0003CF1FF000
00071FC7F000
001E3FE3F000
0038FFF8F000
0071FFFC7000
01C7FFFE3C00
038FFFFF8E00
0E3FFFFFC780
1C7FFFFFF1C0
71FFFFFFF8E0
E1FFFFFFFC30
41FFFFFFFC10
01FFFFFFFC00
01FFFFFFFC00
01FFFFFFFC00
01FFE03FFC00
01FFE03FFC00
01FFE03FFC00
01FFE03FFC00
01FFE03FFC00
01FFE03FFC00
01FFE03FFC00
01FFE03FFC00
01FFE03FFC00
01FFE03FFC00
01FFE03FFC00
01FFE03FFC00
01FFE03FFC00
01FFE03FF800
00FFE03FF800
ENDCHAR
STARTCHAR 0036
ENCODING 54
SWIDTH 981 0
DWIDTH 45 0
BBX 44 47 0 -9
BITMAP
00E00000E000
01F00001F800
03F80003F800
03F80003FC00
03F80003F800
03F80003F800
01F00001F800
00E00000E000
000000000000
1FFF000FFE00
3FFF801FFF00
7FFFC03FFF80
7FFFC03FFF80
FFFFE03FFFC0
FFFFE07BFDC0
F7FDE07FFDC0
F7FDE077FDC0
F7FDE077FFE0
F7FDE0FFFEE0
F7FDE0EFFEE0
F7FDE0EFFEF0
F7FDE1EFFF70
F7FDE1FFFF70
F7FDE1DFFF70
F7FDE1DFFFF0
F7FDE03FFF80
67FCC03FFF80
07BC003FFF80
07BC003FFFC0
07BC007FFFC0
07BC007FFFC0
07BC007FFFE0
07BC0007BC00
07BC0007BC00
07BC0007BC00
07BC0007BC00
07BC0007BC00
07BC0007BC00
07BC0007BC00
07BC0007BC00
07BC0007BC00
07BC0007BC00
07BC0007BC00
07BC0007BC00
07BC0007BC00
07BC0003BC00
021800031800
ENDCHAR
STARTCHAR 0037
ENCODING 55
SWIDTH 981 0
DWIDTH 45 0
BBX 45 34 0 -2
BITMAP
0000E0000000
001FFE000000
007FFF800000
00FE0FE00000
03FC07F00000
07F803F80000
0FF803FC0000
0FF003FE0000
1FF003FF0000
3FF803FF0000
3FF807FF8000
7FFC0FFF8000
7C3F1F8FC000
781FFE03C000
700FFC01C000
E007FC01C000
E007FC01C000
E007FC01C000
E007FC01C000
F00FFC01C000
780FFE03C000
7C3FFF07C000
7FFC0FFF8000
3FF807FF8000
3FF803FF8000
3FF003FF0000
1FF003FF0000
0FF803FE0000
07F803FE0030
07FC07FF00F8
01FE0FF787F0
00FFFFE3FFE0
003FFF81FF00
000FFE007000
ENDCHAR
STARTCHAR 0038
ENCODING 56
SWIDTH 981 0
DWIDTH 45 0
BBX 35 47 5 -9
BITMAP
7FFFFFFFC0
FFFFFFFFE0
FFFFFFFFE0
FFFFFFFFE0
F0000001E0
F0000001E0
F0000001E0
F0000001E0
F0000001E0
F0000001E0
F0000001E0
F0000001E0
F8000003E0
FFFFFFFFE0
FFFFFFFFE0
FFFFFFFFE0
F03E0F81E0
F03E0781E0
F03E0781E0
F03E0781E0
F03E0781E0
F03E0781E0
FFFFFFFFE0
FFFFFFFFE0
FFFFFFFFE0
FFFFFFFFE0
F03E0F81E0
F03E0781E0
F03E0781E0
F03E0781E0
F03E0781E0
F03E0781E0
FFFFFFFFE0
FFFFFFFFE0
FFFFFFFFE0
FFFFFFFFE0
F83E0F81E0
F03E0781E0
F03E0781E0
F03E0781E0
F03E0781E0
F03E0781E0
FFFFFFFFE0
FFFFFFFFE0
FFFFFFFFE0
7FFFFFFFE0
7FFFFFFFC0
ENDCHAR
STARTCHAR 0039
ENCODING 57
SWIDTH 981 0
DWIDTH 45 0
BBX 45 43 0 -7
BITMAP
600000000000
F00000000000
7C0000000000
3C0000000000
1E0000000000
0F0000000000
0787FFFFFFF8
0787FFFFFFF0
03C7FFFFFFE0
03C7FFFFFFE0
01C3FFFFFFE0
01E3FFFFFFC0
00E3FFFFFFC0
00E3FFFFFF80
00F3FFFFFF80
0073FFFFFF00
0071FFFFFF00
0071FFFFFE00
0079FFFFFE00
0079FFFFFC00
0039FFFFFC00
0039FFFFF800
003800000000
003800000000
003800000000
003C00000000
003C00000000
001C00000000
001FFFFFFF80
001FFFFFFF80
001FFFFFFF80
000000000000
000000000000
000600000800
001F80007E00
003FC0007F00
007FC000FF80
007FC000FF80
007FC000FF80
007FC000FF80
003FC0007F00
001F80007E00
000600001800
ENDCHAR
STARTCHAR 003A
ENCODING 58
SWIDTH 981 0
DWIDTH 45 0
BBX 44 45 0 -8
BITMAP
000000018000
0000003FF800
0000007FFE00
000001FFFF00
000003FFFF80
000007FFFFC0
000007FF83E0
00000FFF01E0
00000FFF01F0
00001FFF01F0
00001FFF01F0
00001FFF83F0
00001FFFC7F0
00001FFFFFF0
00001FFFFFF0
00001FFFFFF0
00001FFFFFF0
00000FFFFFF0
00004FFFFFE0
00004FFFFFE0
0000E7FFFFC0
0001E3FFFF80
0003F1FFFF00
0007F8FFFE00
000FFC3FFC00
001FFE0FE000
003FFF800000
007FFFE00000
00FFFC000000
01FFFC000000
03FFFC000000
07FFE0000000
0FFFE0000000
1FFFE0000000
3FF800000000
7FF800000000
7FF800000000
FFF800000000
FFF800000000
FFF800000000
7FC000000000
7FC000000000
3FC000000000
1FC000000000
070000000000
ENDCHAR
STARTCHAR 003B
ENCODING 59
SWIDTH 981 0
DWIDTH 45 0
BBX 45 45 0 -8
BITMAP
000007000000
000007000000
000007000000
000007000000
000007000000
000007000000
000007000000
000007000000
000007000000
000007000000
000007000000
000007000000
000007000000
000007000000
000007000000
000007000000
000007000000
000007000000
000007000000
000007000000
000007000000
FFFFFFFFFFF8
FFFFFFFFFFF8
FFFFFFFFFFF8
000007000000
000007000000
000007000000
000007000000
000007000000
000007000000
000007000000
000007000000
000007000000
000007000000
000007000000
000007000000
000007000000
000007000000
000007000000
000007000000
000007000000
000007000000
000007000000
000007000000
000007000000
ENDCHAR
STARTCHAR 003C
ENCODING 60
SWIDTH 981 0
DWIDTH 45 0
BBX 45 36 0 -3
BITMAP
000002000000
000007000000
000007800000
00000F800000
00001FC00000
00001FC00000
00003FE00000
00003DF00000
00007DF00000
0000F8F80000
0000F0780000
0001F07C0000
0001E03C0000
0003E03E0000
0007C01F0000
0007800F0000
000F800F8000
000F00078000
001F0007C000
003E0003E000
003C0001E000
007C0001F000
00780000F000
00F80000F800
01F000007C00
01E000003C00
03E000003E00
03C000001E00
07C000001F00
0F8000000F80
0F0000000780
1F00000007C0
1E00000003C0
3E00000003E0
7C00000001F0
F800000000F8
ENDCHAR
STARTCHAR 003D
ENCODING 61
SWIDTH 981 0
DWIDTH 45 0
BBX 45 44 0 -7
BITMAP
00001FC00000
0001FFFC0000
0007C03F0000
001E0003C000
00780000F000
00E000003800
01C000001C00
038000000E00
070000000700
0E3FFFE00300
0C0FC3F80180
1807C0FC01C0
1807C07E00C0
3007C03E0060
3007C03E0060
6007C03E0060
6007C03E0030
6007C03E0030
6007C03E0030
C007C07C0030
C007C0F80030
C007C7F00018
C007FF800018
C007CF800018
C007C7C00030
4007C3E00030
6007C3E00030
6007C1F00030
6007C0F80030
7007C0780060
3007C07C0060
3007C03E00E0
1807C01E00C0
1C07C01F01C0
0C1FF00FC180
063FF807E300
070000000600
038000000E00
01C000001C00
00F000007000
003C0001E000
001F0007C000
0007FDFE0000
0000FFF80000
ENDCHAR
STARTCHAR 003E
ENCODING 62
SWIDTH 981 0
DWIDTH 45 0
BBX 45 44 0 -7
BITMAP
00001F800000
0001FFFC0000
0007E03F0000
001E0007C000
00780000E000
00E000003800
01C000001C00
038000000E00
07000FE08700
0E007FFD8300
0C01E00FC180
18078007C1C0
180F0003C0C0
301E0001C060
301E0000C060
603C0000C060
607C00004030
607C00000030
607C00000030
C0F800000030
C0F800000010
C0F800000010
C0F800000018
C0F800000010
C0F800000030
40FC00000030
607C00000030
607C00000030
607C00000030
703E00004060
301E0000E060
301F000080E0
180F800380C0
1C03E00601C0
0C01FFFC0180
06007FF00300
070000000600
038000000E00
01C000001C00
00F000007000
003C0001E000
001F0007C000
0007FDFE0000
0000FFF80000
ENDCHAR
STARTCHAR 003F
ENCODING 63
SWIDTH 981 0
DWIDTH 45 0
BBX 45 44 0 -7
BITMAP
000007000000
0001FFFC0000
0007FFFF0000
001FFFFFC000
003FFFFFE000
00FFF07FF800
01FF0007FC00
03FC0001FE00
07F00000FF00
07E000003F00
0FC000001F80
1F8000000FC0
1F0000000FC0
3F00000007E0
3E00000003E0
7E00000003E0
7C00000001F0
7C00000001F0
7C00000001F0
7C00000001F0
F800000001F0
F800000000F0
F800000000F8
F800000000F0
F800000001F0
7C00000001F0
7C00000001F0
7C00000001F0
7C00000001F0
7E00000003E0
3E00000003E0
3F00000007E0
1F8000000FC0
1F8000000FC0
0FC000001F80
07E000003F00
07F80000FE00
03FC0001FE00
01FF0007FC00
00FFFDFFF000
003FFFFFE000
001FFFFFC000
0007FFFF0000
0000FFF80000
ENDCHAR
STARTCHAR 0040
ENCODING 64
SWIDTH 981 0
DWIDTH 45 0
BBX 45 44 0 -7
BITMAP
000002000000
000002000000
000007000000
000007000000
00000F800000
00000F800000
00001FC00000
00001FC00000
00003FE00000
00003FE00000
00007FF00000
00007FF00000
0000FFF80000
0000FFF80000
0001FFFC0000
0001FFFC0000
0003FFFE0000
0003FFFE0000
0007FFFF0000
0007FFFF0000
000FFFFF8000
000FFFFF8000
001FFFFFC000
001FFFFFC000
003FFFFFE000
003FFFFFE000
007FFFFFF000
007FFFFFF000
00FFFFFFF800
00FFFFFFF800
01FFFFFFFC00
01FFFFFFFC00
03FFFFFFFE00
03FFFFFFFE00
07FFFFFFFF00
07FFFFFFFF00
0FFFFFFFFF80
0FFFFFFFFF80
1FFFFFFFFFC0
1FFFFFFFFFC0
3FFFFFFFFFE0
3FFFFFFFFFE0
7FFFFFFFFFF0
FFFFFFFFFFF8
ENDCHAR
STARTCHAR 0041
ENCODING 65
SWIDTH 981 0
DWIDTH 45 0
BBX 44 43 0 -7
BITMAP
800080000000
C000C0000000
F000E0000000
F800F8000000
FC00FC000000
FF00FE000000
FF80FF800000
FFC0FFC00000
FFF0FFE00000
FFF8FFF80000
FFFCFFFC0000
FFFF3FFE0000
FFFF9FFF8000
FFFFCFFFC000
FFFFF3FFE000
FFFFF9FFF800
FFFFFCFFFC00
FFFFFF3FFE00
FFFFFF9FFF80
FFFFFFCFFFC0
FFFFFFF3FFE0
FFFFFFF9FFF0
FFFFFFE7FFE0
FFFFFFCFFFC0
FFFFFF1FFF00
FFFFFE7FFE00
FFFFFCFFFC00
FFFFF1FFF000
FFFFE7FFE000
FFFFCFFFC000
FFFF1FFF0000
FFFE7FFE0000
FFFCFFFC0000
FFF0FFF00000
FFE0FFE00000
FFC0FFC00000
FF00FF000000
FE00FE000000
FC00FC000000
F800F0000000
E000E0000000
C000C0000000
800080000000
ENDCHAR
STARTCHAR 0042
ENCODING 66
SWIDTH 981 0
DWIDTH 45 0
BBX 39 47 3 -9
BITMAP
80000007FE
E0000007FE
F8000007FE
FC000007FE
FF000007FE
FF800007FE
FFE00007FE
FFF80007FE
FFFC0007FE
FFFF0007FE
FFFFC007FE
FFFFE007FE
FFFFF807FE
FFFFFE07FE
FFFFFF07FE
FFFFFFC7FE
FFFFFFE7FE
FFFFFFFFFE
FFFFFFFFFE
FFFFFFFFFE
FFFFFFFFFE
FFFFFFFFFE
FFFFFFFFFE
FFFFFFFFFE
FFFFFFFFFE
FFFFFFFFFE
FFFFFFFFFE
FFFFFFFFFE
FFFFFFFFFE
FFFFFFFFFE
FFFFFFE7FE
FFFFFFC7FE
FFFFFF07FE
FFFFFC07FE
FFFFF807FE
FFFFE007FE
FFFF8007FE
FFFF0007FE
FFFC0007FE
FFF00007FE
FFE00007FE
FF800007FE
FE000007FE
FC000007FE
F0000007FE
E0000007FE
80000007FE
ENDCHAR
STARTCHAR 0043
ENCODING 67
SWIDTH 981 0
DWIDTH 45 0
BBX 34 47 5 -9
BITMAP
FFFE0FFFC0
FFFE0FFFC0
FFFE0FFFC0
FFFE0FFFC0
FFFE0FFFC0
FFFE0FFFC0
FFFE0FFFC0
FFFE0FFFC0
FFFE0FFFC0
FFFE0FFFC0
FFFE0FFFC0
FFFE0FFFC0
FFFE0FFFC0
FFFE0FFFC0
FFFE0FFFC0
FFFE0FFFC0
FFFE0FFFC0
FFFE0FFFC0
FFFE0FFFC0
FFFE0FFFC0
FFFE0FFFC0
FFFE0FFFC0
FFFE0FFFC0
FFFE0FFFC0
FFFE0FFFC0
FFFE0FFFC0
FFFE0FFFC0
FFFE0FFFC0
FFFE0FFFC0
FFFE0FFFC0
FFFE0FFFC0
FFFE0FFFC0
FFFE0FFFC0
FFFE0FFFC0
FFFE0FFFC0
FFFE0FFFC0
FFFE0FFFC0
FFFE0FFFC0
FFFE0FFFC0
FFFE0FFFC0
FFFE0FFFC0
FFFE0FFFC0
FFFE0FFFC0
FFFE0FFFC0
FFFE0FFFC0
FFFE0FFFC0
FFFE0FFFC0
ENDCHAR
STARTCHAR 0044
ENCODING 68
SWIDTH 981 0
DWIDTH 45 0
BBX 39 47 3 -9
BITMAP
8000000000
E000000000
F000000000
FC00000000
FF00000000
FF80000000
FFE0000000
FFF8000000
FFFC000000
FFFF000000
FFFF800000
FFFFE00000
FFFFF80000
FFFFFC0000
FFFFFF0000
FFFFFFC000
FFFFFFE000
FFFFFFF800
FFFFFFFE00
FFFFFFFF00
FFFFFFFFC0
FFFFFFFFF0
FFFFFFFFF8
FFFFFFFFFE
FFFFFFFFF8
FFFFFFFFE0
FFFFFFFFC0
FFFFFFFF00
FFFFFFFC00
FFFFFFF800
FFFFFFE000
FFFFFFC000
FFFFFF0000
FFFFFC0000
FFFFF80000
FFFFE00000
FFFF800000
FFFF000000
FFFC000000
FFF0000000
FFE0000000
FF80000000
FE00000000
FC00000000
F000000000
E000000000
8000000000
ENDCHAR
STARTCHAR 0045
ENCODING 69
SWIDTH 981 0
DWIDTH 45 0
BBX 45 44 0 -7
BITMAP
00000F000000
0001FFFC0000
0007FFFF0000
001FFFFFC000
003FFFFFE000
00FFFFFFF800
01FFFFFFFC00
03FFFFFFFE00
07FFFFFFFF00
07FFFFFFFF00
0FFFFFFFFF80
1FFFFFFFFFC0
1FFFFFFFFFC0
3FFFC03FFFE0
3FFF800FFFE0
3FFF0007FFE0
7FFE0003FFF0
7FFC0001FFF0
7FFC0001FFF0
7FF80000FFF0
FFF80000FFF0
FFF80000FFF0
FFF80000FFF8
FFF80000FFF0
FFF80000FFF0
7FF80000FFF0
7FFC0001FFF0
7FFC0001FFF0
7FFE0003FFF0
3FFF0007FFE0
3FFF800FFFE0
3FFFE03FFFE0
1FFFFFFFFFC0
1FFFFFFFFF80
0FFFFFFFFF80
07FFFFFFFF00
03FFFFFFFE00
03FFFFFFFE00
01FFFFFFFC00
007FFFFFF000
003FFFFFE000
001FFFFF8000
0007FFFF0000
0000FFF80000
ENDCHAR
STARTCHAR 0046
ENCODING 70
SWIDTH 981 0
DWIDTH 45 0
BBX 43 43 1 -7
BITMAP
FFFFFFFFFFE0
FFFFFFFFFFE0
FFFFFFFFFFE0
FFFFFFFFFFE0
FFFFFFFFFFE0
FFFFFFFFFFE0
FFFFFFFFFFE0
FFFFFFFFFFE0
FFFFFFFFFFE0
FFFFFFFFFFE0
FFFFFFFFFFE0
FFFFFFFFFFE0
FFFFFFFFFFE0
FFFFFFFFFFE0
FFFFFFFFFFE0
FFFFFFFFFFE0
FFFFFFFFFFE0
FFFFFFFFFFE0
FFFFFFFFFFE0
FFFFFFFFFFE0
FFFFFFFFFFE0
FFFFFFFFFFE0
FFFFFFFFFFE0
FFFFFFFFFFE0
FFFFFFFFFFE0
FFFFFFFFFFE0
FFFFFFFFFFE0
FFFFFFFFFFE0
FFFFFFFFFFE0
FFFFFFFFFFE0
FFFFFFFFFFE0
FFFFFFFFFFE0
FFFFFFFFFFE0
FFFFFFFFFFE0
FFFFFFFFFFE0
FFFFFFFFFFE0
FFFFFFFFFFE0
FFFFFFFFFFE0
FFFFFFFFFFE0
FFFFFFFFFFE0
FFFFFFFFFFE0
FFFFFFFFFFE0
FFFFFFFFFFE0
ENDCHAR
STARTCHAR 0047
ENCODING 71
SWIDTH 981 0
DWIDTH 45 0
BBX 39 47 3 -9
BITMAP
FFC0000002
FFC000000E
FFC000003E
FFC000007E
FFC00001FE
FFC00003FE
FFC0000FFE
FFC0003FFE
FFC0007FFE
FFC001FFFE
FFC007FFFE
FFC00FFFFE
FFC03FFFFE
FFC0FFFFFE
FFC1FFFFFE
FFC7FFFFFE
FFCFFFFFFE
FFFFFFFFFE
FFFFFFFFFE
FFFFFFFFFE
FFFFFFFFFE
FFFFFFFFFE
FFFFFFFFFE
FFFFFFFFFE
FFFFFFFFFE
FFFFFFFFFE
FFFFFFFFFE
FFFFFFFFFE
FFFFFFFFFE
FFFFFFFFFE
FFCFFFFFFE
FFC7FFFFFE
FFC1FFFFFE
FFC07FFFFE
FFC03FFFFE
FFC00FFFFE
FFC003FFFE
FFC001FFFE
FFC0007FFE
FFC0003FFE
FFC0000FFE
FFC00003FE
FFC00001FE
FFC000007E
FFC000001E
FFC000000E
FFC0000002
ENDCHAR
STARTCHAR 0048
ENCODING 72
SWIDTH 981 0
DWIDTH 45 0
BBX 44 43 0 -7
BITMAP
000000080010
000000180010
000000780070
000000F800F0
000001F801F0
000007F807F0
00000FF80FF0
00001FF81FF0
00007FF87FF0
0000FFF8FFF0
0001FFF9FFF0
0007FFE7FFF0
000FFFCFFFF0
001FFF9FFFF0
003FFE7FFFF0
00FFFCFFFFF0
01FFF9FFFFF0
03FFE7FFFFF0
0FFFCFFFFFF0
1FFF9FFFFFF0
3FFE7FFFFFF0
FFFCFFFFFFF0
3FFF3FFFFFF0
1FFF9FFFFFF0
07FFCFFFFFF0
03FFF3FFFFF0
01FFF9FFFFF0
007FFCFFFFF0
003FFF3FFFF0
001FFF9FFFF0
0007FFCFFFF0
0003FFF3FFF0
0001FFF9FFF0
00007FF8FFF0
00003FF83FF0
00001FF81FF0
000007F80FF0
000003F803F0
000001F801F0
000000F800F0
000000380030
000000180010
000000080010
ENDCHAR
STARTCHAR 0049
ENCODING 73
SWIDTH 981 0
DWIDTH 45 0
BBX 44 44 1 -7
BITMAP
F10000000000
F08000000000
F0E000000000
F0F800000000
F0F800000000
F0F800000000
F0F840000000
F0F860000000
F0F878000000
F0F87C000000
F0F87F000000
F0F87FC00000
F0F87FE00000
F0F87FF80000
F0F87FFE0000
F0F87FFF0000
F0F87FFFC000
F0F87FFFF000
F0F87FFFF800
F0F87FFFFE00
F0F87FFFFF00
F0F87FFFFFC0
F0F87FFFFFF0
F0F87FFFFFC0
F0F87FFFFF00
F0F87FFFFC00
F0F87FFFF800
F0F87FFFE000
F0F87FFFC000
F0F87FFF0000
F0F87FFC0000
F0F87FF80000
F0F87FE00000
F0F87F800000
F0F87F000000
F0F87C000000
F0F870000000
F0F860000000
F0F800000000
F0F800000000
F0F800000000
F0F000000000
F0E000000000
F08000000000
ENDCHAR
STARTCHAR 004A
ENCODING 74
SWIDTH 981 0
DWIDTH 45 0
BBX 44 43 0 -7
BITMAP
000002000000
000007000000
00000F800000
00000F800000
00001FC00000
00003FE00000
00007FF00000
00007FF00000
0000FFF80000
0001FFFC0000
0003FFFE0000
0003FFFE0000
0007FFFF0000
000FFFFF8000
001FFFFFC000
001FFFFFC000
003FFFFFE000
007FFFFFF000
00FFFFFFF800
00FFFFFFF800
01FFFFFFFC00
03FFFFFFFE00
07FFFFFFFF00
07FFFFFFFF00
0FFFFFFFFF80
1FFFFFFFFFC0
3FFFFFFFFFE0
3FFFFFFFFFE0
FFFFFFFFFFF0
000000000000
000000000000
000000000000
FFFFFFFFFFF0
FFFFFFFFFFF0
FFFFFFFFFFF0
FFFFFFFFFFF0
FFFFFFFFFFF0
FFFFFFFFFFF0
FFFFFFFFFFF0
FFFFFFFFFFF0
FFFFFFFFFFF0
FFFFFFFFFFF0
FFFFFFFFFFF0
ENDCHAR
STARTCHAR 004B
ENCODING 75
SWIDTH 981 0
DWIDTH 45 0
BBX 44 45 0 -8
BITMAP
000000000600
000000001F00
000000003F00
000000003F00
000000007F00
00000000FE00
00000000FC00
00000001FC00
00000001F800
00000003F800
00000003F000
00000007F000
0000000FE000
0000000FE000
1FFFFFFFC000
1FFFFFFF8000
3FFFFFFF8000
7FFFFFFFC000
7FFFFFFFC000
BFFFFFFFE000
00FFFFFFE000
0007FFFFF000
00003FFFF800
000003FFF800
000007FFFC00
000007FFFC00
00000FEFFE00
00001FC7FE00
00001F87FF00
00003F83FF80
00003F01FF80
00007E00FFC0
00007E007FC0
0007FC003FE0
003FF8001FE0
007FF8000FF0
007FF8000FF0
00FFFC0007F0
0003FC0003E0
0000FC0001E0
00007E0000C0
00003E000040
00001C000000
00000C000000
000008000000
ENDCHAR
STARTCHAR 004C
ENCODING 76
SWIDTH 981 0
DWIDTH 45 0
BBX 37 47 4 -9
BITMAP
0000000400
0000000400
0000000E00
0000000E00
0000000F00
001FFE1F00
00FFFFFF00
01FFFFFF80
07FFFFFF80
0FFFFFFFC0
1FFFFFFFC0
1F803FFFC0
3C000FFFE0
700003FFE0
800007FFF0
000007FFF0
00000FFFF0
00001FFFF8
00001FFFF8
00003FFC00
00007C0000
0000000000
0000000000
0000000000
0000000000
0000100000
0007E00000
03FFC00000
FFFFC00000
FFFF800000
FFFF800000
7FFF000000
7FFE000018
3FFE000070
3FFF8003E0
1FFFF01FC0
1FFFFFFF80
1FFFFFFF00
0FFFFFFE00
0FFFFFFC00
07FFFFF000
07C3FF8000
0780000000
0380000000
0300000000
0100000000
0100000000
ENDCHAR
STARTCHAR 004D
ENCODING 77
SWIDTH 981 0
DWIDTH 45 0
BBX 45 38 0 -4
BITMAP
000030000000
0007FF800000
001FFFF00000
007FFFF80000
01FFFFFE0000
03FFFFFF0000
07FF03FF8000
0FF8007FC000
0FF0001FE000
1FC0000FE000
1F800007F000
3F000003F000
3F000003F800
7E000001F800
7E000001F800
7E000040FC08
7C00003FFFF0
FC00001FFFE0
FC00000FFFC0
FC00000FFF80
FC000007FF00
FC000003FF00
7C000001FE00
7E000000FC00
7E0000007800
7E0000007000
3F0000002000
3F8000000000
1FC000000000
1FE000000000
0FF000300000
07FC00F00000
03FFFFF00000
01FFFFF80000
00FFFFF80000
003FFFFC0000
001FFFE00000
0003FF000000
ENDCHAR
STARTCHAR 004E
ENCODING 78
SWIDTH 981 0
DWIDTH 45 0
BBX 44 32 0 -1
BITMAP
000000000300
0000000007C0
000000000FE0
000000001FF0
000000003FF0
000000007FF0
00000000FFF0
00000001FFF0
00000003FFE0
00000007FFC0
0F00000FFF80
1F80001FFF00
3FC0003FFE00
7FE0007FFC00
FFF000FFF800
FFF801FFF000
7FFC03FFE000
3FFE07FFC000
1FFF0FFF8000
0FFF9FFF0000
07FFFFFE0000
03FFFFFC0000
01FFFFF80000
00FFFFF00000
007FFFE00000
003FFFC00000
001FFF800000
000FFF000000
0007FE000000
0003FC000000
0001F8000000
0000F0000000
ENDCHAR
STARTCHAR 004F
ENCODING 79
SWIDTH 981 0
DWIDTH 45 0
BBX 44 44 0 -7
BITMAP
0C0000000000
3FFC00000000
7FFF80000000
7FFFF0000000
FFFFFC000000
7FFFFF000000
7FFFFFC00000
3FFFFFE00000
0FFFFFF80000
000FFFFC0000
0001FFFE0000
00003FFF0000
00000FFF8000
1F0007FFC000
3FF001FFE000
7FFE00FFF000
FFFF807FF800
FFFFE01FF800
7FFFF00FFC00
7FFFFC0FFE00
3FFFFE07FE00
0FFFFF03FF00
001FFF81FF00
0007FFC1FF80
0001FFC0FF80
0000FFE07FC0
00007FF07FC0
00003FF03FC0
00001FF83FE0
00000FF83FE0
0FE007FC1FE0
1FF807FC1FE0
3FFC03FC1FF0
7FFC03FE1FF0
7FFE03FE0FF0
7FFE01FE0FF0
FFFE01FE0FF0
FFFE01FE0FF0
7FFE01FF0FF0
7FFE01FF0FF0
7FFC01FF0FF0
3FFC01FE0FF0
1FF800FE07F0
0FE0007C03E0
ENDCHAR
STARTCHAR 0050
ENCODING 80
SWIDTH 981 0
DWIDTH 45 0
BBX 41 47 2 -9
BITMAP
0000FF000000
0007FFE00000
001FFFF80000
003FFFFE0000
007FFFFF0000
00FFFFFF8000
01FFFFFFC000
03FF80FFE000
03FE003FE000
07FC001FF000
07F8000FF000
0FF00007F800
0FE00007F800
0FE00003F800
0FE00003F800
1FC00003F800
1FC00001F800
1FC00001F800
1FC00001F800
1FC00001F800
1FC00001F800
FFFFFFFFFF80
FFFFFFFFFF80
FFFFFFFFFF80
FFFFFFFFFF80
FFFFFFFFFF80
FFFFFFFFFF80
FFFFC3FFFF80
FFFFC1FFFF80
FFFF80FFFF80
FFFF80FFFF80
FFFFC1FFFF80
FFFFC3FFFF80
FFFFE3FFFF80
FFFFE3FFFF80
FFFFC3FFFF80
FFFFC3FFFF80
FFFFC3FFFF80
FFFFC1FFFF80
FFFFC1FFFF80
FFFFC1FFFF80
FFFFFFFFFF80
FFFFFFFFFF80
FFFFFFFFFF80
FFFFFFFFFF80
FFFFFFFFFF80
FFFFFFFFFF80
ENDCHAR
STARTCHAR 0051
ENCODING 81
SWIDTH 981 0
DWIDTH 45 0
BBX 45 44 0 -7
BITMAP
007FFFFFF000
007FFFFFF000
007FFFFFF000
007FFFFFF000
007FFFFFF000
007FFFFFF000
007FFFFFF000
007FFFFFF000
007FFFFFF000
007FFFFFF000
007FFFFFF000
007FFFFFF000
007FFFFFF000
007FFFFFF000
007FFFFFF000
007FFFFFF000
000003000000
000003000000
000003000000
000003000000
000003000000
000003000000
000003000000
007FFFFFF800
007FFFFFF800
006000001800
006000001800
006000001800
006000001800
FFFFE03FFFF8
FFFFE03FFFF8
FFFFE03FFFF8
FFFFE03FFFF8
FFFFE03FFFF8
FFFFE03FFFF8
FFFFE03FFFF8
FFFFE03FFFF8
FFFFE03FFFF8
FFFFE03FFFF8
FFFFE03FFFF8
FFFFE03FFFF8
FFFFE03FFFF8
FFFFE03FFFF8
FFFFE03FFFF8
ENDCHAR
STARTCHAR 0052
ENCODING 82
SWIDTH 981 0
DWIDTH 45 0
BBX 45 27 0 1
BITMAP
000060000000
000070000000
00007C000000
00003E000000
00003F000000
00FFFF87F800
03FFFFE7FE00
0FFFFFF7FF80
1FFFFFE7FFC0
3FFFFFC7FFE0
3FE03F803FE0
7F003E0007F0
7E007C0003F0
7C00780001F0
FC00700001F0
FC00000001F8
FC00000001F8
7C00000001F0
7E00000003F0
7F00000007F0
3F8000000FE0
3FFFFFFFFFE0
1FFFFFFFFFC0
0FFFFFFFFF80
07FFFFFFFF00
01FFFFFFFC00
001FFFFFC000
ENDCHAR
STARTCHAR 0053
ENCODING 83
SWIDTH 981 0
DWIDTH 45 0
BBX 45 37 0 -4
BITMAP
000000070000
0000000F8000
0000001FC000
0000003FE000
0000007FF000
000000FFF800
000001FFFC00
FFFFE3FFFE00
FFFFF7FFFF00
FFFFCFFFFF80
FFFF9FFFFFC0
FFFF3FFFFFE0
FFFF7FFFFFF0
FFFF7F9FCFF0
FF007E1FC3F0
FE00781FC0F0
FE7F87DFDE08
FCFFFFDFDFF8
FCFFFFDFDFF0
FDFFFFDFDFF0
F9FFFFDFDFF0
F9FFFFDFDFE0
F9FFFFDFDFE0
FBFFFFDFDFE0
F3FFFFDFDFE0
F3FFFFDFDFC0
F7FFFFDFDFC0
E7FFFFDFDFC0
E7FFFFDFDF80
E7FFFFEFBF80
EFFFFFF07F80
CFFFFFFFFF80
CFFFFFFFFF00
5FFFFFFFFF00
1FFFFFFFFF00
1FFFFFFFFE00
0FFFFFFFFC00
ENDCHAR
STARTCHAR 0054
ENCODING 84
SWIDTH 981 0
DWIDTH 45 0
BBX 44 44 0 -7
BITMAP
00000F000000
0001FFF80000
0007FFFF0000
001FFFFFC000
007FFFFFE000
00FFFFFFF800
01FFFFFFFC00
03FFC01FFE00
07FF0007FF00
0FFC0001FF00
0FFC0000FF80
1FFE00007FC0
1FFF00003FC0
3FFF80001FE0
3F9FC0000FE0
7F0FE0000FE0
7F07F00007F0
7F03F80007F0
7E01FC0007F0
FE00FE0003F0
FE007F0003F0
FE003F8003F0
FE001FC003F0
FE000FE003F0
FE0007F003F0
FE0003F803F0
7E0001FC07F0
7F0000FE07F0
7F00007F07F0
7F80003F8FE0
3F80001FCFE0
3FC0000FFFC0
1FE00007FFC0
1FF00003FF80
0FF80001FF80
07FC0001FF00
07FF0007FE00
03FFE03FFC00
01FFFFFFF800
00FFFFFFF000
003FFFFFE000
001FFFFF8000
0007FFFE0000
0000FFF80000
ENDCHAR
STARTCHAR 0055
ENCODING 85
SWIDTH 981 0
DWIDTH 45 0
BBX 44 39 0 -5
BITMAP
000003000000
000007000000
00000F000000
00001F000000
00003F000000
00007F000000
0000FF000000
0001FF000000
0003FF000000
0007FF000000
0007FF000000
7FFFFF000000
FFFFFF000000
FFFFFF000000
FFFFFF000000
FFFFFF000000
FFFFFF000000
FFFFFF0FFFF0
FFFFFF0FFFF0
FFFFFF0FFFF0
FFFFFF0FFFF0
FFFFFF07FFF0
FFFFFF000000
FFFFFF000000
FFFFFF000000
FFFFFF000000
FFFFFF000000
000FFF000000
0007FF000000
0003FF000000
0001FF000000
0000FF000000
00007F000000
00003F000000
00003F000000
00001F000000
00000F000000
000007000000
000003000000
ENDCHAR
STARTCHAR 0056
ENCODING 86
SWIDTH 981 0
DWIDTH 45 0
BBX 45 41 0 -6
BITMAP
000001800000
000003800000
000007800000
00000F800000
00001F800000
00003F800000
00003F800000
00007F800000
0000FF800000
0001FF800000
0003FF800000
0007FF800000
7FFFFF803E00
FFFFFF803E00
FFFFFF803E00
FFFFFF803E00
FFFFFF803E00
FFFFFF803E00
FFFFFF8FFFF8
FFFFFF8FFFF8
FFFFFF8FFFF8
FFFFFF8FFFF8
FFFFFF8FFFF8
FFFFFF803E00
FFFFFF803E00
FFFFFF803E00
FFFFFF803E00
FFFFFF803E00
000FFF803E00
0007FF800000
0003FF800000
0001FF800000
0000FF800000
00007F800000
00003F800000
00001F800000
00000F800000
000007800000
000007800000
000003800000
000001000000
ENDCHAR
STARTCHAR 0057
ENCODING 87
SWIDTH 981 0
DWIDTH 45 0
BBX 45 43 0 -7
BITMAP
00FC0001FC00
07FF0007FF00
0FFFC01FFF80
1FFFE03FFFC0
3FFFF07FFFE0
7FFFF0FFFFE0
7FFFF9FFFFF0
7FFFFDFFFFF0
FFFFFFFFFFF0
FFFFFFFFFFF0
FFFFFFFFFFF8
7FFFFFFFFFF8
7FFFFFFFFFF0
7FFFFFFFFFF0
3FFFFFFFFFF0
3FFFFFFFFFE0
1FFFFFFFFFE0
1FFFFFFFFFC0
0FFFFFFFFF80
07FFFFFFFF80
03FFFFFFFF00
01FFFFFFFE00
00FFFFFFFC00
007FFFFFF800
003FFFFFF000
001FFFFFE000
000FFFFFC000
0007FFFF8000
0003FFFF0000
0001FFFE0000
0000FFFC0000
00007FF80000
00003FF00000
00001FF00000
00001FE00000
00000FC00000
000007800000
000007800000
000003000000
000003000000
000002000000
000002000000
000002000000
ENDCHAR
STARTCHAR 0058
ENCODING 88
SWIDTH 981 0
DWIDTH 45 0
BBX 37 47 4 -9
BITMAP
0078000000
00F8000000
00F8000000
00F8000000
00F8000000
00F8000000
00F8000000
00F8000000
00F8000000
00F8000000
00F8000000
00F8000000
00F8000000
00F8700000
00F8F80000
00F8F86000
00F8F8F800
00F8F8F870
00F8F8F8F8
30F8F8F8F8
F8F8F8F8F8
F8FFFFFFF8
F8FFFFFFF8
F8FFFFFFF8
F8FFFFFFF8
F8FFFFFFF8
F8FFFFFFF8
F8FFFFFFF8
F8FFFFFFF8
F8FFFFFFF8
FFFFFFFFF8
FFFFFFFFF8
FFFFFFFFF8
FFFFFFFFF8
7FFFFFFFF8
3FFFFFFFF8
3FFFFFFFF8
1FFFFFFFF8
0FFFFFFFF8
0FFFFFFFF8
07FFFFFFF8
07FFFFFFF8
03FFFFFFF8
01FFFFFFF8
01FFFFFFF0
00FFFFFFF0
007FFFFFC0
ENDCHAR
STARTCHAR 0059
ENCODING 89
SWIDTH 981 0
DWIDTH 45 0
BBX 33 47 6 -9
BITMAP
0001C00000
0003E00000
0003E00000
0003E00000
00E3E38000
01E3E7C000
01E3E7C000
01E3E7C000
01E3E7C000
01E3E7C000
01E3E7C780
01E3E7C780
01E3E7C780
01E3E7C780
01E3E7C780
01E3E7C780
01E3E7C780
01E3E7C780
01E3E7C780
01E3E7C780
01E3E7C780
01E3E7C780
F1E3E7C780
F1F3E7CF80
F1FFFFFF80
F1FFFFFF80
F1FFFFFF80
F1FFFFFF80
F1FFFFFF80
F1FFFFFF80
F1FFFFFF80
FBFFFFFF80
FFFFFFFF80
FFFFFFFF80
FFFFFFFF80
FFFFFFFF80
7FFFFFFF80
3FFFFFFF80
3FFFFFFF80
1FFFFFFF80
0FFFFFFF80
0FFFFFFF80
07FFFFFF80
03FFFFFF80
03FFFFFF80
01FFFFFF00
00FFFFFE00
ENDCHAR
STARTCHAR 005A
ENCODING 90
SWIDTH 981 0
DWIDTH 45 0
BBX 45 45 0 -8
BITMAP
000000000E00
000000000E00
000000E00F00
000001E00700
000003E00780
000007E00780
00000FE003C0
00001FE183C0
00003FE1C3C0
00007FE1C1E0
00007FE1E1E0
0000FFE1E1E0
0001FFE0E1F0
0003FFE0F1F0
7FFFFFE0F0F0
FFFFFFE0F0F0
FFFFFFE0F0F0
FFFFFFE0F8F0
FFFFFFE0F8F0
FFFFFFE0F8F8
FFFFFFE078F8
FFFFFFE078F8
FFFFFFE078F8
FFFFFFE078F8
FFFFFFE078F8
FFFFFFE0F8F8
FFFFFFE0F8F0
FFFFFFE0F0F0
FFFFFFE0F0F0
FFFFFFE0F0F0
FFFFFFE0F1F0
7FFFFFE0F1F0
0007FFE1E1E0
0003FFE1E1E0
0001FFE1E1E0
0000FFE1C3C0
00007FE3C3C0
00003FE183C0
00001FE00780
00000FE00780
000007E00780
000003E00F00
000001E00F00
000000E00E00
000000C00400
ENDCHAR
STARTCHAR 005B
ENCODING 91
SWIDTH 981 0
DWIDTH 45 0
BBX 43 43 1 -7
BITMAP
800000000000
E00000000000
F80000000000
FE0000000000
FF8000000000
FFE000000000
FFF800000000
FFFE00000000
FFFF80000000
FFFFE0000000
FFFFF8000000
FFFFFE000000
FFFFFF800000
FFFFFFE00000
FFFFFFF80000
FFFFFFFE0000
FFFFFFFF8000
FFFFFFFFE000
FFFFFFFFF800
FFFFFFFFFE00
FFFFFFFFFF80
FFFFFFFFFFE0
FFFFFFFFFF80
FFFFFFFFFE00
FFFFFFFFF800
FFFFFFFFE000
FFFFFFFF8000
FFFFFFFE0000
FFFFFFF80000
FFFFFFE00000
FFFFFF800000
FFFFFE000000
FFFFF8000000
FFFFE0000000
FFFF80000000
FFFE00000000
FFF800000000
FFE000000000
FF8000000000
FE0000000000
F80000000000
E00000000000
800000000000
ENDCHAR
STARTCHAR 005C
ENCODING 92
SWIDTH 981 0
DWIDTH 45 0
BBX 45 44 0 -7
BITMAP
FFFFFFFFFFF8
7FFFFFFFFFF0
7FFFFFFFFFE0
3FFFFFFFFFE0
3FFFFFFFFFC0
1FFFFFFFFFC0
1FFFFFFFFF80
0FFFFFFFFF80
0FFFFFFFFF00
07FFFFFFFF00
07FFFFFFFE00
03FFFFFFFE00
03FFFFFFFC00
01FFFFFFFC00
01FFFFFFF800
00FFFFFFF800
00FFFFFFF000
007FFFFFF000
007FFFFFE000
003FFFFFE000
003FFFFFC000
001FFFFFC000
001FFFFF8000
000FFFFF8000
000FFFFF0000
0007FFFF0000
0007FFFE0000
0003FFFE0000
0003FFFC0000
0001FFFC0000
0001FFF80000
0000FFF80000
0000FFF00000
00007FF00000
00007FE00000
00003FE00000
00003FC00000
00001FC00000
00001F800000
00000F800000
00000F000000
000007000000
000006000000
000002000000
ENDCHAR
STARTCHAR 005D
ENCODING 93
SWIDTH 981 0
DWIDTH 45 0
BBX 45 44 0 -7
BITMAP
000000000008
000000000038
0000000000F8
0000000003F8
000000000FF8
000000003FF8
00000000FFF8
00000003FFF8
0000000FFFF8
0000003FFFF8
000000FFFFF8
000003FFFFF8
00000FFFFFF8
00003FFFFFF8
0000FFFFFFF8
0003FFFFFFF8
000FFFFFFFF8
003FFFFFFFF8
00FFFFFFFFF8
03FFFFFFFFF8
0FFFFFFFFFF8
3FFFFFFFFFF8
FFFFFFFFFFF8
3FFFFFFFFFF8
0FFFFFFFFFF8
01FFFFFFFFF8
00FFFFFFFFF8
003FFFFFFFF8
000FFFFFFFF8
0003FFFFFFF8
0000FFFFFFF8
00003FFFFFF8
000007FFFFF8
000001FFFFF8
0000007FFFF8
0000001FFFF8
00000007FFF8
00000001FFF8
000000007FF8
000000001FF8
0000000007F8
0000000001F8
000000000078
000000000018
ENDCHAR
STARTCHAR 005E
ENCODING 94
SWIDTH 981 0
DWIDTH 45 0
BBX 45 15 0 7
BITMAP
010000000400
030000000600
060000000300
0E0000000380
1E00000003C0
3FFFFFFFFFE0
7FFFFFFFFFF0
FFFFFFFFFFF8
7FFFFFFFFFE0
3C00000001C0
1E0000000380
0E0000000300
060000000200
030000000400
010000000400
ENDCHAR
STARTCHAR 005F
ENCODING 95
SWIDTH 981 0
DWIDTH 45 0
BBX 17 47 14 -9
BITMAP
008000
01C000
03E000
07F000
0FF800
1FFC00
3BFE00
C3E300
03E080
03E000
03E000
03E000
03E000
03E000
03E000
03E000
03E000
03E000
03E000
03E000
03E000
03E000
03E000
03E000
03E000
03E000
03E000
03E000
03E000
03E000
03E000
03E000
03E000
03E000
03E000
03E000
03E000
03E000
83E080
63E300
3FFE00
1FFC00
0FF800
07F000
03E000
01C000
008000
ENDCHAR
STARTCHAR 0060
ENCODING 96
SWIDTH 981 0
DWIDTH 45 0
BBX 17 47 14 -9
BITMAP
03E000
03E000
03E000
03E000
03E000
03E000
03E000
03E000
03E000
03E000
03E000
03E000
03E000
03E000
03E000
03E000
03E000
03E000
03E000
03E000
03E000
03E000
03E000
03E000
03E000
03E000
03E000
03E000
03E000
03E000
03E000
03E000
03E000
03E000
03E000
03E000
03E000
03E000
83E080
63E300
3FFE00
1FFC00
0FF800
07F000
03E000
01C000
008000
ENDCHAR
STARTCHAR 0061
ENCODING 97
SWIDTH 981 0
DWIDTH 45 0
BBX 45 26 0 2
BITMAP
000000000400
000000000400
000000000400
0001FE000E00
0007FFC00E00
001FFFF81E00
003FFFFE3E00
00FFFFFF3F00
01FFFFFFFF00
01FFFFFFFF00
03FFFFFFFF80
07FFFFFFFF80
0FFFFFFFFF80
0FE00FFFFF80
1F8003FFFFC0
1E0000FFFFC0
3800003FFFC0
3000007FFFC0
6000007FFFE0
400000FFFFE0
800001FFFFE0
000003FFFFE0
000007FFFFF0
000007FFFFF0
00000FFFFFF0
00001FFFFFF8
ENDCHAR
STARTCHAR 0062
ENCODING 98
SWIDTH 981 0
DWIDTH 45 0
BBX 43 25 1 2
BITMAP
020000000000
020000000000
030001C00000
07001FFC0000
0780FFFF0000
07C3FFFFC000
07CFFFFFE000
0FFFFFFFF000
0FFFFFFFF800
0FFFFFFFFC00
1FFFFFFFFC00
1FFFFFFFFE00
1FFFFF80FF00
1FFFFC001F00
3FFFF0000780
3FFFE0000380
3FFFC00000C0
3FFFE0000040
7FFFF0000020
7FFFF8000020
7FFFFC000000
7FFFFE000000
FFFFFE000000
FFFFFF000000
FFFFFF800000
ENDCHAR
STARTCHAR 0063
ENCODING 99
SWIDTH 981 0
DWIDTH 45 0
BBX 44 47 0 -9
BITMAP
00001FE00000
00003FF00000
00007FF00000
00007FF00000
00007FF00000
00007FF00000
00007FF00000
00007FF00000
00007FF00000
00007FF00000
00007FF00000
00007FF00000
00007FF00000
00007FF00000
00007FF00000
00007FF00000
00007FF00000
00007FF00000
00007FF00000
00007FF00000
00007FF00000
00007FF00000
3E007FF003E0
7F807FF00FF0
7FE07FF03FF0
FFF87FF0FFF0
7FFE7FF7FFF0
7FFFFFFFFFF0
3FFFFFFFFFE0
1FFFFFFFFFC0
0FFFFFFFFF80
07FFFFFFFF00
03FFFFFFFE00
01FFFFFFFC00
00FFFFFFF800
007FFFFFF000
003FFFFFE000
001FFFFFC000
000FFFFF8000
0007FFFF0000
0003FFFE0000
0001FFFC0000
0000FFF80000
00007FF00000
00003FE00000
00001FC00000
00000F800000
ENDCHAR
STARTCHAR 0064
ENCODING 100
SWIDTH 981 0
DWIDTH 45 0
BBX 43 44 1 -7
BITMAP
000000003C00
000000007E00
00000000FF00
00000001FF80
1C000003FFC0
7E000007FFE0
FF00000FFFE0
FF80001FFFE0
FF80003FFFE0
FF80007FFFC0
FFC000FFFFC0
FFC001FFFF80
FFE003FFFF00
FFE007FFFE00
FFE00FFFFC00
FFE01FFFF800
FFF03FFFF000
FFF07FFFE000
FFF0FFFFC000
FFF9FFFF8000
FFFBFFFF0000
FFFFFFFE0000
FFFFFFFC0000
FFFFFFF80000
FFFFFFF00000
FFFFFFE00000
FFFFFFC00000
FFFFFF800000
FFFFFF000000
FFFFFE000000
FFFFFE000000
FFFFFFC00000
FFFFFFF80000
FFFFFFFF0000
FFFFFFFFE000
FFFFFFFFF800
FFFFFFFFFC00
FFFFFFFFFE00
FFFFFFFFFE00
FFFFFFFFFE00
FFFFFFFFFE00
FFFFFFFFFC00
7FFFFFFFFC00
1FFFFFFFF000
ENDCHAR
STARTCHAR 0065
ENCODING 101
SWIDTH 981 0
DWIDTH 45 0
BBX 43 44 1 -7
BITMAP
078000000000
0FC000000000
1FE000000000
3FF000000000
7FF800000700
FFFC00001FC0
FFFE00001FC0
FFFF00003FE0
FFFF80003FE0
FFFFC0007FE0
7FFFE0007FE0
3FFFF0007FE0
1FFFF800FFE0
0FFFFC00FFE0
07FFFE00FFE0
03FFFF01FFE0
01FFFF81FFE0
00FFFFC1FFE0
007FFFE3FFE0
003FFFF3FFE0
001FFFFBFFE0
000FFFFFFFE0
0007FFFFFFE0
0003FFFFFFE0
0001FFFFFFE0
0000FFFFFFE0
00007FFFFFE0
00003FFFFFE0
00001FFFFFE0
00000FFFFFE0
00000FFFFFE0
00007FFFFFE0
0003FFFFFFE0
001FFFFFFFE0
00FFFFFFFFE0
03FFFFFFFFE0
07FFFFFFFFE0
0FFFFFFFFFE0
0FFFFFFFFFE0
0FFFFFFFFFE0
0FFFFFFFFFE0
0FFFFFFFFFC0
07FFFFFFFFC0
01FFFFFFFF00
ENDCHAR
STARTCHAR 0066
ENCODING 102
SWIDTH 981 0
DWIDTH 45 0
BBX 45 41 0 -6
BITMAP
00001E000000
00003F000000
00007F000000
0000FF000000
0001FF000000
0003FF000000
0007FF000000
000FFE000000
001FFE000000
003FFC000000
007FFC000000
00FFF8000000
01FFF8000000
03FFF0000000
07FFF0000000
0FFFE0000000
1FFFFFFFFFE0
3FFFFFFFFFF0
7FFFFFFFFFF8
FFFFFFFFFFF8
FFFFFFFFFFF8
FFFFFFFFFFF8
7FFFFFFFFFF8
7FFFFFFFFFF0
3FFFFFFFFFF0
1FFFFFFFFFE0
0FFFF0000000
07FFF0000000
03FFF0000000
01FFF8000000
00FFFC000000
007FFC000000
003FFE000000
001FFE000000
000FFE000000
0007FF000000
0003FF000000
0001FF000000
0000FF000000
00007F000000
00001E000000
ENDCHAR
STARTCHAR 0067
ENCODING 103
SWIDTH 981 0
DWIDTH 45 0
BBX 45 41 0 -6
BITMAP
000003C00000
000007F00000
00000FF80000
00000FFC0000
000007FE0000
000007FF0000
000007FF8000
000003FFC000
000003FFE000
000001FFF000
000001FFF000
000000FFF800
000000FFFC00
0000007FFE00
0000007FFF00
0000003FFF80
7FFFFFFFFFC0
7FFFFFFFFFE0
FFFFFFFFFFF0
FFFFFFFFFFF0
FFFFFFFFFFF8
FFFFFFFFFFF0
FFFFFFFFFFF0
FFFFFFFFFFE0
7FFFFFFFFFC0
3FFFFFFFFF80
0000007FFF00
0000007FFE00
000000FFFC00
000000FFF800
000001FFF000
000001FFE000
000003FFC000
000003FF8000
000007FF0000
000007FE0000
000007FC0000
00000FF80000
00000FF00000
000007E00000
000003C00000
ENDCHAR
STARTCHAR 0068
ENCODING 104
SWIDTH 981 0
DWIDTH 45 0
BBX 43 47 1 -9
BITMAP
00001F000000
00003F800000
00007FC00000
0000FFE00000
0001FFF00000
0003FFF80000
0007FFFC0000
000FFFFE0000
001FFFFF0000
003FFFFF8000
007FFFFFC000
00FFFFFFE000
01FFFFFFF000
03FFFFFFF800
07FFFFFFFC00
0FFFFFFFFE00
1FFFFFFFFF00
3FFFFFFFFF80
7FFFFFFFFFC0
FFFFFFFFFFE0
FFFEFFEFFFE0
FFF8FFE3FFE0
FFE0FFE0FFE0
FF80FFE03FE0
FE00FFE00FE0
3000FFE00180
0000FFE00000
0000FFE00000
0000FFE00000
0000FFE00000
0000FFE00000
0000FFE00000
0000FFE00000
0000FFE00000
0000FFE00000
0000FFE00000
0000FFE00000
0000FFE00000
0000FFE00000
0000FFE00000
0000FFE00000
0000FFE00000
0000FFE00000
0000FFE00000
00007FE00000
00007FE00000
00003FC00000
ENDCHAR
STARTCHAR 0069
ENCODING 105
SWIDTH 981 0
DWIDTH 45 0
BBX 45 45 0 -8
BITMAP
1FFFFFFFFC00
3FFFFFFFFE00
7FFFFFFFFF00
7FFFFFFFFF00
FFFFFFFFFF80
FFFFFFFFFF80
FFFFFFFFFF00
FFFFFFFFFF00
FFFFFFFFFC00
FFFFFFFFF000
FFFFFFFFC000
FFFFFFFE0000
FFFFFFF00000
FFFFFF800000
FFFFFE000000
FFFFFF000000
FFFFFF800000
FFFFFFC00000
FFFFFFE00000
FFFFFFF00000
FFFFFFF80000
FFFFFFFC0000
FFFFFFFE0000
FFFFFFFF0000
FFFDFFFF8000
FFFCFFFFC000
FFF87FFFE000
FFF83FFFF000
FFF81FFFF800
FFF00FFFFC00
FFF007FFFE00
FFF003FFFF00
FFE001FFFF80
FFE000FFFFC0
FFC0007FFFE0
FFC0003FFFF0
7FC0001FFFF0
7F80000FFFF8
3F000007FFF0
1F000003FFF0
00000001FFE0
00000000FFC0
000000007F80
000000003F00
000000000C00
ENDCHAR
STARTCHAR 006A
ENCODING 106
SWIDTH 981 0
DWIDTH 45 0
BBX 45 45 0 -8
BITMAP
01FFFFFFFFC0
03FFFFFFFFE0
07FFFFFFFFF0
07FFFFFFFFF0
0FFFFFFFFFF0
0FFFFFFFFFF8
07FFFFFFFFF8
07FFFFFFFFF8
01FFFFFFFFF8
007FFFFFFFF8
001FFFFFFFF8
0003FFFFFFF8
00007FFFFFF8
00000FFFFFF8
000007FFFFF8
00000FFFFFF8
00001FFFFFF8
00003FFFFFF8
00007FFFFFF8
0000FFFFFFF8
0001FFFFFFF8
0003FFFFFFF8
0007FFFFFFF8
000FFFFFFFF8
001FFFFDFFF8
003FFFF9FFF8
007FFFF0FFF8
00FFFFE0FFF8
01FFFFC0FFF8
03FFFF807FF8
07FFFF007FF8
0FFFFE007FF8
1FFFFC003FF8
3FFFF8003FF8
3FFFF0003FF8
7FFFE0001FF8
FFFFC0001FF0
FFFF80000FF0
7FFF000007E0
7FFE000007C0
3FFC00000000
1FF800000000
0FF000000000
07E000000000
018000000000
ENDCHAR
STARTCHAR 006B
ENCODING 107
SWIDTH 981 0
DWIDTH 45 0
BBX 45 39 0 -5
BITMAP
000000400000
000000400000
000000600000
000000700000
000000780000
0000007C0000
0000007E0000
0000007F0000
0000007F8000
0000007FC000
0003FFFFE000
001FFFFFF000
007FFFFFF800
01FFFFFFFC00
03FFFFFFFE00
07FFFFFFFF00
0FFFFFFFFF80
0FFFFFFFFFC0
1FFFFFFFFFE0
1FFFFFFFFFF8
3FFFFFFFFFF0
3FFF01FFFFC0
7FF803FFFF00
7FE003FFFC00
7F8003FFF800
7F0003FFE000
7E0003FF8000
FC0003FE0000
F80007FC0000
F80007F00000
F00007C00000
F00007000000
E00006000000
E00008000000
C00000000000
400000000000
400000000000
800000000000
800000000000
ENDCHAR
STARTCHAR 006C
ENCODING 108
SWIDTH 1069 0
DWIDTH 49 0
BBX 49 43 0 -7
BITMAP
00000400000000
00000400000000
00000C00000000
00001C00000000
00003C00000000
00007C00000000
0000FC00000000
0001FC00000000
0003FC00000000
0007FC00000000
000FFC00000000
001FFFFFC00000
003FFFFFF80000
007FFFFFFE0000
00FFFFFFFF8000
01FFFFFFFFC000
03FFFFFFFFE000
07FFFFFFFFF000
0FFFFFFFFFF800
1FFFFFFFFFFC00
3FFFFFFFFFFC00
FFFFFFFFFFFE00
7FFFFFFFFFFE00
1FFFFFE3FFFE00
07FFFF801FFF00
03FFFF8007FF00
00FFFF8001FF00
003FFF8000FF80
000FFF80007F80
0007FFC0003F80
0001FFC0001F80
00007FC0000F80
00001FC0000F80
00000FC0000780
000003C0000780
000000E0000380
00000060000380
00000000000180
00000000000180
00000000000080
00000000000080
00000000000080
00000000000080
ENDCHAR
STARTCHAR 006D
ENCODING 109
SWIDTH 981 0
DWIDTH 45 0
BBX 39 47 3 -9
BITMAP
001FFFE000
001FFFE000
001FFFE000
001FFFE000
001FFFE000
001FFFE000
001FFFE000
001FFFE000
001FFFE000
001FFFE000
001FFFE000
001FFFE000
001FFFE000
001FFFE000
001FFFE000
001FFFE000
001FFFE000
001FFFE000
001FFFE000
001FFFE000
001FFFE000
001FFFE000
001FFFE000
001FFFE000
001FFFE000
001FFFE000
FFFFFFFFFE
7FFFFFFFFC
3FFFFFFFF8
1FFFFFFFF0
0FFFFFFFE0
07FFFFFFC0
03FFFFFF80
01FFFFFF00
00FFFFFE00
007FFFFC00
003FFFF800
001FFFF000
000FFFE000
000FFFC000
0007FFC000
0003FF8000
0001FF0000
0000FE0000
00007C0000
0000380000
0000100000
ENDCHAR
STARTCHAR 006E
ENCODING 110
SWIDTH 981 0
DWIDTH 45 0
BBX 45 37 0 -4
BITMAP
000010000000
000030000000
000070000000
0000F0000000
0001F0000000
0003F0000000
0007F0000000
000FF0000000
001FF0000000
003FF0000000
007FF0000000
00FFFFFFFFF8
01FFFFFFFFF8
03FFFFFFFFF8
0FFFFFFFFFF8
1FFFFFFFFFF8
3FFFFFFFFFF8
7FFFFFFFFFF8
FFFFFFFFFFF8
3FFFFFFFFFF8
1FFFFFFFFFF8
0FFFFFFFFFF8
07FFFFFFFFF8
03FFFFFFFFF8
01FFFFFFFFF8
00FFF0000000
007FF0000000
003FF0000000
001FF0000000
000FF0000000
0007F0000000
0001F0000000
0000F0000000
000070000000
000030000000
000010000000
000008000000
ENDCHAR
STARTCHAR 006F
ENCODING 111
SWIDTH 981 0
DWIDTH 45 0
BBX 44 37 0 -4
BITMAP
000000800000
000000400000
000000600000
000000700000
0000007C0000
0000007E0000
0000007F0000
0000007F8000
0000007FC000
0000007FE000
0000007FF000
FFFFFFFFF800
FFFFFFFFFC00
FFFFFFFFFE00
FFFFFFFFFF00
FFFFFFFFFF80
FFFFFFFFFFE0
FFFFFFFFFFF0
FFFFFFFFFFF0
FFFFFFFFFFE0
FFFFFFFFFFC0
FFFFFFFFFF80
FFFFFFFFFF00
FFFFFFFFFE00
FFFFFFFFFC00
0000007FF800
0000007FF000
0000007FE000
0000007F8000
0000007F0000
0000007E0000
0000007C0000
000000780000
000000700000
000000600000
000000400000
000000800000
ENDCHAR
STARTCHAR 0070
ENCODING 112
SWIDTH 981 0
DWIDTH 45 0
BBX 39 47 3 -9
BITMAP
0000100000
0000380000
00007C0000
0000FE0000
0001FF0000
0003FF8000
0007FFC000
000FFFE000
000FFFE000
001FFFF000
003FFFF800
007FFFFC00
00FFFFFE00
01FFFFFF00
03FFFFFF80
07FFFFFFC0
0FFFFFFFE0
1FFFFFFFF0
3FFFFFFFF8
7FFFFFFFFC
FFFFFFFFFE
001FFFE000
001FFFE000
001FFFE000
001FFFE000
001FFFE000
001FFFE000
001FFFE000
001FFFE000
001FFFE000
001FFFE000
001FFFE000
001FFFE000
001FFFE000
001FFFE000
001FFFE000
001FFFE000
001FFFE000
001FFFE000
001FFFE000
001FFFE000
001FFFE000
001FFFE000
001FFFE000
001FFFE000
001FFFE000
001FFFE000
ENDCHAR
STARTCHAR 0071
ENCODING 113
SWIDTH 981 0
DWIDTH 45 0
BBX 41 47 2 -9
BITMAP
000000100000
000000180000
000000380000
0000003C0000
0000007E0000
0000007E0000
000000FF0000
000000FF0000
000001FF8000
000003FFC000
000003FFC000
000007FFE000
FF0007FFE000
FF000FFFF000
FF000FFFF000
FF001FFFF800
FF003FFFFC00
FF003FFFFC00
FF007FFFFE00
FF007FFFFE00
FF00FFFFFF00
FF01FFFFFF80
FF0000FF0000
FF0000FF0000
FF0000FF0000
FF0000FF0000
FF0000FF0000
FF0000FF0000
FF0000FF0000
FF0000FF0000
FF0000FF0000
FF0000FF0000
FF0000FF0000
7F0000FE0000
7F8001FE0000
7F8001FE0000
7FC003FE0000
3FE007FC0000
3FF00FFC0000
1FFFFFF80000
1FFFFFF80000
0FFFFFF00000
07FFFFE00000
03FFFFC00000
00FFFF000000
007FFE000000
000FF0000000
ENDCHAR
STARTCHAR 0072
ENCODING 114
SWIDTH 981 0
DWIDTH 45 0
BBX 45 38 0 -4
BITMAP
000008000000
000018000000
000078000000
0000F8000000
0003F8000000
000FF8000000
001FF8000000
007FF8000000
01FFF8000000
07FFFFFFC000
0FFFFFFFF000
3FFFFFFFFC00
FFFFFFFFFE00
3FFFFFFFFF00
0FFFFFFFFF80
03FFFFFFFFC0
01FFF800FFE0
007FF8003FE0
001FF8000FF0
0007F8000FF0
0003F80007F0
0000F80007F0
0000380007F0
0000080003F8
0000000007F8
0000000007F0
0000000007F0
000000000FF0
000000000FF0
000000001FE0
000000007FE0
000FFFFFFFC0
000FFFFFFFC0
000FFFFFFF80
000FFFFFFF00
000FFFFFFC00
000FFFFFF800
000FFFFFE000
ENDCHAR
STARTCHAR 0073
ENCODING 115
SWIDTH 981 0
DWIDTH 45 0
BBX 45 35 0 -3
BITMAP
00001FC00000
0003FFFE0000
001FFFFFC000
007FFFFFF000
01FFFFFFFC00
03FFFFFFFE00
0FFFFFFFFF00
1FFFFFFFFF80
1FFFFFFFFFC0
3FFFFFFFFFE0
7FFFFFFFFFE0
7FFFFFFFFFF0
7FFFFFFFFFF0
FFFFFFFFFFF0
FFFFFFFFFFF0
FFFFFFFFFFF8
FFFFFFFFFFF0
7FFFFFFFFFF0
7FFFFFFFFFF0
7FFFFFFFFFF0
3FFFFFFFFFE0
3FFFFFFFFFC0
1FFFFFFFFF80
0FFFFFFFFF00
07FFFFFFFE00
03FFFFFFFC00
00FFFFFFF000
003FFFFFC000
0007FFFE0000
0000FFE00000
0000FC000000
0000F8000000
0001F0000000
0003C0000000
000C00000000
ENDCHAR
STARTCHAR 0074
ENCODING 116
SWIDTH 981 0
DWIDTH 45 0
BBX 45 37 0 -4
BITMAP
7FFFFFFFFFF0
7FFFFFFFFFF0
FFFFFFFFFFF8
FFFFFFFFFFF8
FFFFFFFFFFF8
FFFFFFFFFFF8
FFFFFFFFFFF8
FFFFFFFFFFF8
FFFFFFFFFFF8
FFFFFFFFFFF8
FFFFFFFFFFF8
FFFFFFFFFFF8
FFFFFFFFFFF8
FFFFFFFFFFF8
FFFFFFFFFFF8
FFFFFFFFFFF8
FFFFFFFFFFF8
FFFFFFFFFFF8
FFFFFFFFFFF8
FFFFFFFFFFF8
FFFFFFFFFFF8
FFFFFFFFFFF8
FFFFFFFFFFF8
FFFFFFFFFFF8
FFFFFFFFFFF8
FFFFFFFFFFF8
FFFFFFFFFFF0
7FFFFFFFFFF0
00001F800000
00001F000000
00003E000000
00003C000000
000078000000
000060000000
0000C0000000
000080000000
000100000000
ENDCHAR
STARTCHAR 0075
ENCODING 117
SWIDTH 981 0
DWIDTH 45 0
BBX 45 35 0 -3
BITMAP
00007FF00000
0007FFFF0000
003FFFFFE000
00FFFFFFF800
03FFFFFFFC00
07FFFFFFFF00
0FFFFFFFFF80
1FFFFFFFFFC0
3FFFFFFFFFC0
3FFFFFFFFFE0
7FFFFFFFFFF0
7FFFFFFFFFF0
FFFFFFFFFFF0
FFFFFFFFFFF0
FFFFFFFFFFF8
FFFFFFFFFFF8
FFFFFFFFFFF0
FFFFFFFFFFF0
7FFFFFFFFFF0
7FFFFFFFFFE0
3FFFFFFFFFE0
3FFFFFFFFFC0
1FFFFFFFFFC0
0FFFFFFFFF80
03FFFFFFFE00
01FFFFFFFC00
007FFFFFF000
001FFFFFC000
0003FFFF0000
00000FF80000
000001F80000
000000F80000
0000007C0000
0000001E0000
000000018000
ENDCHAR
STARTCHAR 0076
ENCODING 118
SWIDTH 981 0
DWIDTH 45 0
BBX 45 37 0 -4
BITMAP
7FFFFFFFFFE0
7FFFFFFFFFF0
FFFFFFFFFFF0
FFFFFFFFFFF8
FFFFFFFFFFF8
FFFFFFFFFFF8
FFFFFFFFFFF8
FFFFFFFFFFF8
FFFFFFFFFFF8
FFFFFFFFFFF8
FFFFFFFFFFF8
FFFFFFFFFFF8
FFFFFFFFFFF8
FFFFFFFFFFF8
FFFFFFFFFFF8
FFFFFFFFFFF8
FFFFFFFFFFF8
FFFFFFFFFFF8
FFFFFFFFFFF8
FFFFFFFFFFF8
FFFFFFFFFFF8
FFFFFFFFFFF8
FFFFFFFFFFF8
FFFFFFFFFFF8
FFFFFFFFFFF8
FFFFFFFFFFF8
FFFFFFFFFFF0
7FFFFFFFFFF0
1FFFFFFFFFC0
000007C00000
000003E00000
000001E00000
000000F00000
000000700000
000000300000
000000080000
000000040000
ENDCHAR
STARTCHAR 0077
ENCODING 119
SWIDTH 981 0
DWIDTH 45 0
BBX 45 45 0 -8
BITMAP
000007000000
00001F800000
00001FC00000
00003FE00000
00003FE00000
00003FE00000
01F83FE0FC00
03FDFFF1FE00
03FFFFFFFE00
03FFFFFFFE00
03FFFFFFFE00
03FFFFFFFE00
03FFFFFFFC00
01FFFFFFF800
00FFFFFFF000
01FFF8FFF000
01FFE03FF000
03FF800FF800
1FFF800FFFC0
7FFF0007FFE0
7FFF0007FFF0
FFFE0007FFF0
FFFE0003FFF8
FFFE0007FFF0
7FFF0007FFF0
3FFF0007FFE0
1FFF800FFFC0
01FF801FF000
01FFE03FF000
00FFFDFFF000
00FFFFFFF800
01FFFFFFFC00
03FFFFFFFE00
03FFFFFFFE00
03FFFFFFFE00
03FFFFFFFE00
03FCFFE3FE00
03F83FE1FE00
01F03FE0FC00
00003FE00000
00003FE00000
00003FE00000
00001FC00000
00000F800000
000002000000
ENDCHAR
STARTCHAR 0078
ENCODING 120
SWIDTH 981 0
DWIDTH 45 0
BBX 45 37 0 -4
BITMAP
043800000000
0E7800000000
0FF800000000
0FFD80000000
07FF80000000
7FFF80000000
FE1F80000000
FE0F00700000
3C0F00F81800
1C0FC1F87C00
3E0FC1FC7E00
7F3FC0FFFE00
7FFE01FFFC00
77FC7FFFFC00
03FEFFFFF800
039EFFFFFC00
038CFFFFFFF0
0100FFE0FFF0
00003FC07FF8
00003F803FF0
00003F803FF0
00003F803FC0
0000FF803F00
0001FF803F00
0001FF803F00
0001FFC07FC0
0001FFF1FFE0
0000FFFFFFE0
000007FFFFE0
000003FFF7E0
000007FFE1C0
000007FFE000
00000FE7F000
000007C3F000
000007C3F000
00000103E000
00000000C000
ENDCHAR
STARTCHAR 0079
ENCODING 121
SWIDTH 981 0
DWIDTH 45 0
BBX 45 39 0 -4
BITMAP
0003FC000000
000FFF007E00
001FFFC1FF80
003FFFE1FFE0
007FE013FC00
00FFC003F800
01FFC003F810
03FFC007FFF0
03FFC007FFE0
07FFE007FFC0
1FFFF00FFF80
7F87F80FFF00
FF81FC1FFE00
7F80FE3FFC00
3F807FFFFC00
1F003FFFFC00
0F001FFF0000
020007FE0000
000007FC0000
00000FFC0000
00003FFE0000
00007FFF0000
0000FFFF8000
0001FF3FC000
0007FE1FE000
000FFC1FF000
001FF80FF800
003FF007FC00
00FFE003FE00
01FFC001FF00
03FF8000FF80
07FF00007FC0
0FFE00003FE0
1FFC00003FF8
1FF800001FF0
1FF000000FE0
0FE0000007C0
07C000000380
000000000100
ENDCHAR
STARTCHAR 007A
ENCODING 122
SWIDTH 981 0
DWIDTH 45 0
BBX 45 44 0 -8
BITMAP
000000100000
000000200000
000000600000
000000E00000
000001E00000
000003C00000
000007C00000
000007C00000
00000FC00000
00000FC00000
00000F800000
00000F800000
00000F800000
00001F800000
00001F000000
00001F000000
00001F000000
00003F000018
00003F0001E0
00C03E003FC0
07FC3E07FF80
1FFE3E7FFF00
3FFF7FFFFE00
7FFF7FFFFC00
7C1FFFFFE000
F81FFFFE0000
F81FFFE00000
FC7FFC000000
7FFEF8000000
7FFEFE000000
3FF9FF000000
1FF3FF000000
0787FF800000
0007EF800000
000FC7800000
000F87800000
000F87800000
000F87800000
000F8F800000
000FFF000000
0007FF000000
0007FE000000
0003FC000000
0001F8000000
ENDCHAR
STARTCHAR 007B
ENCODING 123
SWIDTH 981 0
DWIDTH 45 0
BBX 45 42 0 -6
BITMAP
00000007FC00
00000003F000
00000003F000
00000001F800
00000001FC00
00000001FE00
00000000BF00
000000008F80
000000000F80
0000000007C0
0000000003C0
0000000003E0
0000000001E0
0000000001F0
0000000000F0
0000000000F0
0000000000F0
0000000000F0
000000000070
000000000078
F00000000078
F00000000070
F000000000F0
7800000000F0
7800000000F0
7800000000F0
7800000001F0
3C00000001E0
3C00000001E0
3E00000003C0
1F00000007C0
1F0000000780
0F8000000F80
07C000001F00
03E000007E00
03F80000FC00
01FE0003F800
007F801FF000
003FFFFFE000
000FFFFF8000
0003FFFE0000
00007FF00000
ENDCHAR
STARTCHAR 007C
ENCODING 124
SWIDTH 981 0
DWIDTH 45 0
BBX 45 42 0 -6
BITMAP
01FE00000000
00FE00000000
007E00000000
00FC00000000
01FC00000000
03FC00000000
07C800000000
0F8800000000
0F8000000000
1F0000000000
1E0000000000
3C0000000000
3C0000000000
780000000000
780000000000
780000000000
780000000000
F00000000000
F00000000000
F00000000000
F00000000078
F00000000070
F00000000070
7800000000F0
7800000000F0
7800000000F0
7800000000F0
3C00000001E0
3C00000001E0
3E00000003C0
1E00000007C0
1F0000000780
0F8000000F80
07C000001F00
07E000003E00
03F80000FC00
01FE0001F800
007F800FF000
003FFFFFE000
000FFFFF8000
0003FFFE0000
0000FFF00000
ENDCHAR
STARTCHAR 007D
ENCODING 125
SWIDTH 501 0
DWIDTH 23 0
BBX 0 0 0 0
BITMAP
ENDCHAR
STARTCHAR 007E
ENCODING 126
SWIDTH 501 0
DWIDTH 23 0
BBX 0 0 0 0
BITMAP
ENDCHAR
STARTCHAR 00A0
ENCODING 160
SWIDTH 240 0
DWIDTH 11 0
BBX 0 0 0 0
BITMAP
ENDCHAR
STARTCHAR 00A1
ENCODING 161
SWIDTH 327 0
DWIDTH 15 0
BBX 0 0 0 0
BITMAP
ENDCHAR
STARTCHAR 00A2
ENCODING 162
SWIDTH 567 0
DWIDTH 26 0
BBX 0 0 0 0
BITMAP
ENDCHAR
STARTCHAR 00A3
ENCODING 163
SWIDTH 501 0
DWIDTH 23 0
BBX 0 0 0 0
BITMAP
ENDCHAR
STARTCHAR 00A4
ENCODING 164
SWIDTH 501 0
DWIDTH 23 0
BBX 0 0 0 0
BITMAP
ENDCHAR
STARTCHAR 00A5
ENCODING 165
SWIDTH 610 0
DWIDTH 28 0
BBX 0 0 0 0
BITMAP
ENDCHAR
STARTCHAR 00A6
ENCODING 166
SWIDTH 501 0
DWIDTH 23 0
BBX 0 0 0 0
BITMAP
ENDCHAR
STARTCHAR 00A7
ENCODING 167
SWIDTH 501 0
DWIDTH 23 0
BBX 0 0 0 0
BITMAP
ENDCHAR
STARTCHAR 00A8
ENCODING 168
SWIDTH 501 0
DWIDTH 23 0
BBX 0 0 0 0
BITMAP
ENDCHAR
STARTCHAR 00A9
ENCODING 169
SWIDTH 829 0
DWIDTH 38 0
BBX 0 0 0 0
BITMAP
ENDCHAR
STARTCHAR 00AA
ENCODING 170
SWIDTH 327 0
DWIDTH 15 0
BBX 0 0 0 0
BITMAP
ENDCHAR
STARTCHAR 00AB
ENCODING 171
SWIDTH 458 0
DWIDTH 21 0
BBX 0 0 0 0
BITMAP
ENDCHAR
STARTCHAR 00AC
ENCODING 172
SWIDTH 501 0
DWIDTH 23 0
BBX 0 0 0 0
BITMAP
ENDCHAR
STARTCHAR 00AD
ENCODING 173
SWIDTH 981 0
DWIDTH 45 0
BBX 45 44 0 -7
BITMAP
00000F800000
0001FFFC0000
0007FFFF0000
001FC01FC000
007E0003F000
00F80000F800
01E000007C00
03C000001E00
07C000000F00
0FE000060700
0E70000E0380
1E38001E03C0
1C1C003E01C0
380E007E00E0
380700FE00E0
700381FE00E0
700003FE0070
7003FFFE0070
7003FFFE0070
6003FFFE0070
E003FFFE0030
E003FFFE0038
E003FFFE0038
E003FFFE0038
E003FFFE0030
6003FFFE0070
7003FFFE0070
7003FFFE0070
700001FE0070
380001FE00E0
380000FE00E0
3800007E81E0
1C00003EC1C0
1E00001EE3C0
0E00000E7780
070000063F00
078000001E00
03E000003E00
01F000007C00
00FC0001F000
003F0007E000
001FF87FC000
0007FFFF0000
0000FFF80000
ENDCHAR
STARTCHAR 00AE
ENCODING 174
SWIDTH 829 0
DWIDTH 38 0
BBX 0 0 0 0
BITMAP
ENDCHAR
STARTCHAR 00AF
ENCODING 175
SWIDTH 327 0
DWIDTH 15 0
BBX 0 0 0 0
BITMAP
ENDCHAR
STARTCHAR 00B0
ENCODING 176
SWIDTH 327 0
DWIDTH 15 0
BBX 0 0 0 0
BITMAP
ENDCHAR
STARTCHAR 00B1
ENCODING 177
SWIDTH 501 0
DWIDTH 23 0
BBX 0 0 0 0
BITMAP
ENDCHAR
STARTCHAR 00B2
ENCODING 178
SWIDTH 501 0
DWIDTH 23 0
BBX 0 0 0 0
BITMAP
ENDCHAR
STARTCHAR 00B3
ENCODING 179
SWIDTH 501 0
DWIDTH 23 0
BBX 0 0 0 0
BITMAP
ENDCHAR
STARTCHAR 00B4
ENCODING 180
SWIDTH 501 0
DWIDTH 23 0
BBX 0 0 0 0
BITMAP
ENDCHAR
STARTCHAR 00B5
ENCODING 181
SWIDTH 589 0
DWIDTH 27 0
BBX 0 0 0 0
BITMAP
ENDCHAR
STARTCHAR 00B6
ENCODING 182
SWIDTH 501 0
DWIDTH 23 0
BBX 0 0 0 0
BITMAP
ENDCHAR
STARTCHAR 00B7
ENCODING 183
SWIDTH 240 0
DWIDTH 11 0
BBX 0 0 0 0
BITMAP
ENDCHAR
STARTCHAR 00B8
ENCODING 184
SWIDTH 501 0
DWIDTH 23 0
BBX 0 0 0 0
BITMAP
ENDCHAR
STARTCHAR 00B9
ENCODING 185
SWIDTH 501 0
DWIDTH 23 0
BBX 0 0 0 0
BITMAP
ENDCHAR
STARTCHAR 00BA
ENCODING 186
SWIDTH 349 0
DWIDTH 16 0
BBX 0 0 0 0
BITMAP
ENDCHAR
STARTCHAR 00BB
ENCODING 187
SWIDTH 458 0
DWIDTH 21 0
BBX 0 0 0 0
BITMAP
ENDCHAR
STARTCHAR 00BC
ENCODING 188
SWIDTH 829 0
DWIDTH 38 0
BBX 0 0 0 0
BITMAP
ENDCHAR
STARTCHAR 00BD
ENCODING 189
SWIDTH 960 0
DWIDTH 44 0
BBX 0 0 0 0
BITMAP
ENDCHAR
STARTCHAR 00BE
ENCODING 190
SWIDTH 829 0
DWIDTH 38 0
BBX 0 0 0 0
BITMAP
ENDCHAR
STARTCHAR 00BF
ENCODING 191
SWIDTH 370 0
DWIDTH 17 0
BBX 0 0 0 0
BITMAP
ENDCHAR
STARTCHAR 00C0
ENCODING 192
SWIDTH 763 0
DWIDTH 35 0
BBX 0 0 0 0
BITMAP
ENDCHAR
STARTCHAR 00C1
ENCODING 193
SWIDTH 763 0
DWIDTH 35 0
BBX 0 0 0 0
BITMAP
ENDCHAR
STARTCHAR 00C2
ENCODING 194
SWIDTH 763 0
DWIDTH 35 0
BBX 0 0 0 0
BITMAP
ENDCHAR
STARTCHAR 00C3
ENCODING 195
SWIDTH 763 0
DWIDTH 35 0
BBX 0 0 0 0
BITMAP
ENDCHAR
STARTCHAR 00C4
ENCODING 196
SWIDTH 763 0
DWIDTH 35 0
BBX 0 0 0 0
BITMAP
ENDCHAR
STARTCHAR 00C5
ENCODING 197
SWIDTH 763 0
DWIDTH 35 0
BBX 0 0 0 0
BITMAP
ENDCHAR
STARTCHAR 00C6
ENCODING 198
SWIDTH 1047 0
DWIDTH 48 0
BBX 0 0 0 0
BITMAP
ENDCHAR
STARTCHAR 00C7
ENCODING 199
SWIDTH 676 0
DWIDTH 31 0
BBX 0 0 0 0
BITMAP
ENDCHAR
STARTCHAR 00C8
ENCODING 200
SWIDTH 567 0
DWIDTH 26 0
BBX 0 0 0 0
BITMAP
ENDCHAR
STARTCHAR 00C9
ENCODING 201
SWIDTH 567 0
DWIDTH 26 0
BBX 0 0 0 0
BITMAP
ENDCHAR
STARTCHAR 00CA
ENCODING 202
SWIDTH 567 0
DWIDTH 26 0
BBX 0 0 0 0
BITMAP
ENDCHAR
STARTCHAR 00CB
ENCODING 203
SWIDTH 567 0
DWIDTH 26 0
BBX 0 0 0 0
BITMAP
ENDCHAR
STARTCHAR 00CC
ENCODING 204
SWIDTH 327 0
DWIDTH 15 0
BBX 0 0 0 0
BITMAP
ENDCHAR
STARTCHAR 00CD
ENCODING 205
SWIDTH 327 0
DWIDTH 15 0
BBX 0 0 0 0
BITMAP
ENDCHAR
STARTCHAR 00CE
ENCODING 206
SWIDTH 327 0
DWIDTH 15 0
BBX 0 0 0 0
BITMAP
ENDCHAR
STARTCHAR 00CF
ENCODING 207
SWIDTH 327 0
DWIDTH 15 0
BBX 0 0 0 0
BITMAP
ENDCHAR
STARTCHAR 00D0
ENCODING 208
SWIDTH 741 0
DWIDTH 34 0
BBX 0 0 0 0
BITMAP
ENDCHAR
STARTCHAR 00D1
ENCODING 209
SWIDTH 763 0
DWIDTH 35 0
BBX 0 0 0 0
BITMAP
ENDCHAR
STARTCHAR 00D2
ENCODING 210
SWIDTH 785 0
DWIDTH 36 0
BBX 0 0 0 0
BITMAP
ENDCHAR
STARTCHAR 00D3
ENCODING 211
SWIDTH 785 0
DWIDTH 36 0
BBX 0 0 0 0
BITMAP
ENDCHAR
STARTCHAR 00D4
ENCODING 212
SWIDTH 785 0
DWIDTH 36 0
BBX 0 0 0 0
BITMAP
ENDCHAR
STARTCHAR 00D5
ENCODING 213
SWIDTH 785 0
DWIDTH 36 0
BBX 0 0 0 0
BITMAP
ENDCHAR
STARTCHAR 00D6
ENCODING 214
SWIDTH 785 0
DWIDTH 36 0
BBX 0 0 0 0
BITMAP
ENDCHAR
STARTCHAR 00D7
ENCODING 215
SWIDTH 501 0
DWIDTH 23 0
BBX 0 0 0 0
BITMAP
ENDCHAR
STARTCHAR 00D8
ENCODING 216
SWIDTH 785 0
DWIDTH 36 0
BBX 0 0 0 0
BITMAP
ENDCHAR
STARTCHAR 00D9
ENCODING 217
SWIDTH 741 0
DWIDTH 34 0
BBX 0 0 0 0
BITMAP
ENDCHAR
STARTCHAR 00DA
ENCODING 218
SWIDTH 741 0
DWIDTH 34 0
BBX 0 0 0 0
BITMAP
ENDCHAR
STARTCHAR 00DB
ENCODING 219
SWIDTH 741 0
DWIDTH 34 0
BBX 0 0 0 0
BITMAP
ENDCHAR
STARTCHAR 00DC
ENCODING 220
SWIDTH 741 0
DWIDTH 34 0
BBX 0 0 0 0
BITMAP
ENDCHAR
STARTCHAR 00DD
ENCODING 221
SWIDTH 610 0
DWIDTH 28 0
BBX 0 0 0 0
BITMAP
ENDCHAR
STARTCHAR 00DE
ENCODING 222
SWIDTH 545 0
DWIDTH 25 0
BBX 0 0 0 0
BITMAP
ENDCHAR
STARTCHAR 00DF
ENCODING 223
SWIDTH 610 0
DWIDTH 28 0
BBX 0 0 0 0
BITMAP
ENDCHAR
STARTCHAR 00E0
ENCODING 224
SWIDTH 458 0
DWIDTH 21 0
BBX 0 0 0 0
BITMAP
ENDCHAR
STARTCHAR 00E1
ENCODING 225
SWIDTH 458 0
DWIDTH 21 0
BBX 0 0 0 0
BITMAP
ENDCHAR
STARTCHAR 00E2
ENCODING 226
SWIDTH 458 0
DWIDTH 21 0
BBX 0 0 0 0
BITMAP
ENDCHAR
STARTCHAR 00E3
ENCODING 227
SWIDTH 458 0
DWIDTH 21 0
BBX 0 0 0 0
BITMAP
ENDCHAR
STARTCHAR 00E4
ENCODING 228
SWIDTH 458 0
DWIDTH 21 0
BBX 0 0 0 0
BITMAP
ENDCHAR
STARTCHAR 00E5
ENCODING 229
SWIDTH 458 0
DWIDTH 21 0
BBX 0 0 0 0
BITMAP
ENDCHAR
STARTCHAR 00E6
ENCODING 230
SWIDTH 720 0
DWIDTH 33 0
BBX 0 0 0 0
BITMAP
ENDCHAR
STARTCHAR 00E7
ENCODING 231
SWIDTH 436 0
DWIDTH 20 0
BBX 0 0 0 0
BITMAP
ENDCHAR
STARTCHAR 00E8
ENCODING 232
SWIDTH 436 0
DWIDTH 20 0
BBX 0 0 0 0
BITMAP
ENDCHAR
STARTCHAR 00E9
ENCODING 233
SWIDTH 436 0
DWIDTH 20 0
BBX 0 0 0 0
BITMAP
ENDCHAR
STARTCHAR 00EA
ENCODING 234
SWIDTH 436 0
DWIDTH 20 0
BBX 0 0 0 0
BITMAP
ENDCHAR
STARTCHAR 00EB
ENCODING 235
SWIDTH 436 0
DWIDTH 20 0
BBX 0 0 0 0
BITMAP
ENDCHAR
STARTCHAR 00EC
ENCODING 236
SWIDTH 261 0
DWIDTH 12 0
BBX 0 0 0 0
BITMAP
ENDCHAR
STARTCHAR 00ED
ENCODING 237
SWIDTH 261 0
DWIDTH 12 0
BBX 0 0 0 0
BITMAP
ENDCHAR
STARTCHAR 00EE
ENCODING 238
SWIDTH 261 0
DWIDTH 12 0
BBX 0 0 0 0
BITMAP
ENDCHAR
STARTCHAR 00EF
ENCODING 239
SWIDTH 261 0
DWIDTH 12 0
BBX 0 0 0 0
BITMAP
ENDCHAR
STARTCHAR 00F0
ENCODING 240
SWIDTH 567 0
DWIDTH 26 0
BBX 0 0 0 0
BITMAP
ENDCHAR
STARTCHAR 00F1
ENCODING 241
SWIDTH 545 0
DWIDTH 25 0
BBX 0 0 0 0
BITMAP
ENDCHAR
STARTCHAR 00F2
ENCODING 242
SWIDTH 501 0
DWIDTH 23 0
BBX 0 0 0 0
BITMAP
ENDCHAR
STARTCHAR 00F3
ENCODING 243
SWIDTH 501 0
DWIDTH 23 0
BBX 0 0 0 0
BITMAP
ENDCHAR
STARTCHAR 00F4
ENCODING 244
SWIDTH 501 0
DWIDTH 23 0
BBX 0 0 0 0
BITMAP
ENDCHAR
STARTCHAR 00F5
ENCODING 245
SWIDTH 501 0
DWIDTH 23 0
BBX 0 0 0 0
BITMAP
ENDCHAR
STARTCHAR 00F6
ENCODING 246
SWIDTH 501 0
DWIDTH 23 0
BBX 0 0 0 0
BITMAP
ENDCHAR
STARTCHAR 00F7
ENCODING 247
SWIDTH 501 0
DWIDTH 23 0
BBX 0 0 0 0
BITMAP
ENDCHAR
STARTCHAR 00F8
ENCODING 248
SWIDTH 501 0
DWIDTH 23 0
BBX 0 0 0 0
BITMAP
ENDCHAR
STARTCHAR 00F9
ENCODING 249
SWIDTH 523 0
DWIDTH 24 0
BBX 0 0 0 0
BITMAP
ENDCHAR
STARTCHAR 00FA
ENCODING 250
SWIDTH 523 0
DWIDTH 24 0
BBX 0 0 0 0
BITMAP
ENDCHAR
STARTCHAR 00FB
ENCODING 251
SWIDTH 523 0
DWIDTH 24 0
BBX 0 0 0 0
BITMAP
ENDCHAR
STARTCHAR 00FC
ENCODING 252
SWIDTH 523 0
DWIDTH 24 0
BBX 0 0 0 0
BITMAP
ENDCHAR
STARTCHAR 00FD
ENCODING 253
SWIDTH 436 0
DWIDTH 20 0
BBX 0 0 0 0
BITMAP
ENDCHAR
STARTCHAR 00FE
ENCODING 254
SWIDTH 501 0
DWIDTH 23 0
BBX 0 0 0 0
BITMAP
ENDCHAR
STARTCHAR 00FF
ENCODING 255
SWIDTH 436 0
DWIDTH 20 0
BBX 0 0 0 0
BITMAP
ENDCHAR
STARTCHAR 0131
ENCODING 305
SWIDTH 261 0
DWIDTH 12 0
BBX 0 0 0 0
BITMAP
ENDCHAR
STARTCHAR 02C6
ENCODING 710
SWIDTH 501 0
DWIDTH 23 0
BBX 0 0 0 0
BITMAP
ENDCHAR
STARTCHAR 02C7
ENCODING 711
SWIDTH 501 0
DWIDTH 23 0
BBX 0 0 0 0
BITMAP
ENDCHAR
STARTCHAR 02C9
ENCODING 713
SWIDTH 501 0
DWIDTH 23 0
BBX 0 0 0 0
BITMAP
ENDCHAR
STARTCHAR 02D8
ENCODING 728
SWIDTH 501 0
DWIDTH 23 0
BBX 0 0 0 0
BITMAP
ENDCHAR
STARTCHAR 02D9
ENCODING 729
SWIDTH 501 0
DWIDTH 23 0
BBX 0 0 0 0
BITMAP
ENDCHAR
STARTCHAR 02DA
ENCODING 730
SWIDTH 501 0
DWIDTH 23 0
BBX 0 0 0 0
BITMAP
ENDCHAR
STARTCHAR 02DB
ENCODING 731
SWIDTH 501 0
DWIDTH 23 0
BBX 0 0 0 0
BITMAP
ENDCHAR
STARTCHAR 02DC
ENCODING 732
SWIDTH 501 0
DWIDTH 23 0
BBX 0 0 0 0
BITMAP
ENDCHAR
STARTCHAR 02DD
ENCODING 733
SWIDTH 501 0
DWIDTH 23 0
BBX 0 0 0 0
BITMAP
ENDCHAR
STARTCHAR 037E
ENCODING 894
SWIDTH 981 0
DWIDTH 45 0
BBX 45 45 0 -8
BITMAP
000007000000
000007000000
000007000000
000007000000
000007000000
000007000000
000007000000
000007000000
000007000000
000007000000
000007000000
000007000000
000007000000
000007000000
000007000000
000007000000
000007000000
000007000000
000007000000
000007000000
000007000000
FFFFFFFFFFF8
FFFFFFFFFFF8
FFFFFFFFFFF8
000007000000
000007000000
000007000000
000007000000
000007000000
000007000000
000007000000
000007000000
000007000000
000007000000
000007000000
000007000000
000007000000
000007000000
000007000000
000007000000
000007000000
000007000000
000007000000
000007000000
000007000000
ENDCHAR
STARTCHAR 2013
ENCODING 8211
SWIDTH 545 0
DWIDTH 25 0
BBX 0 0 0 0
BITMAP
ENDCHAR
STARTCHAR 2014
ENCODING 8212
SWIDTH 1003 0
DWIDTH 46 0
BBX 0 0 0 0
BITMAP
ENDCHAR
STARTCHAR 2018
ENCODING 8216
SWIDTH 283 0
DWIDTH 13 0
BBX 0 0 0 0
BITMAP
ENDCHAR
STARTCHAR 2019
ENCODING 8217
SWIDTH 283 0
DWIDTH 13 0
BBX 0 0 0 0
BITMAP
ENDCHAR
STARTCHAR 201A
ENCODING 8218
SWIDTH 283 0
DWIDTH 13 0
BBX 0 0 0 0
BITMAP
ENDCHAR
STARTCHAR 201C
ENCODING 8220
SWIDTH 436 0
DWIDTH 20 0
BBX 0 0 0 0
BITMAP
ENDCHAR
STARTCHAR 201D
ENCODING 8221
SWIDTH 436 0
DWIDTH 20 0
BBX 0 0 0 0
BITMAP
ENDCHAR
STARTCHAR 201E
ENCODING 8222
SWIDTH 436 0
DWIDTH 20 0
BBX 0 0 0 0
BITMAP
ENDCHAR
STARTCHAR 2020
ENCODING 8224
SWIDTH 501 0
DWIDTH 23 0
BBX 0 0 0 0
BITMAP
ENDCHAR
STARTCHAR 2021
ENCODING 8225
SWIDTH 501 0
DWIDTH 23 0
BBX 0 0 0 0
BITMAP
ENDCHAR
STARTCHAR 2022
ENCODING 8226
SWIDTH 501 0
DWIDTH 23 0
BBX 0 0 0 0
BITMAP
ENDCHAR
STARTCHAR 2026
ENCODING 8230
SWIDTH 1003 0
DWIDTH 46 0
BBX 0 0 0 0
BITMAP
ENDCHAR
STARTCHAR 2039
ENCODING 8249
SWIDTH 305 0
DWIDTH 14 0
BBX 0 0 0 0
BITMAP
ENDCHAR
STARTCHAR 203A
ENCODING 8250
SWIDTH 305 0
DWIDTH 14 0
BBX 0 0 0 0
BITMAP
ENDCHAR
STARTCHAR 2044
ENCODING 8260
SWIDTH 174 0
DWIDTH 8 0
BBX 0 0 0 0
BITMAP
ENDCHAR
STARTCHAR 20A3
ENCODING 8355
SWIDTH 501 0
DWIDTH 23 0
BBX 0 0 0 0
BITMAP
ENDCHAR
STARTCHAR 20A4
ENCODING 8356
SWIDTH 501 0
DWIDTH 23 0
BBX 0 0 0 0
BITMAP
ENDCHAR
STARTCHAR 20A7
ENCODING 8359
SWIDTH 1003 0
DWIDTH 46 0
BBX 0 0 0 0
BITMAP
ENDCHAR
STARTCHAR 20AC
ENCODING 8364
SWIDTH 501 0
DWIDTH 23 0
BBX 0 0 0 0
BITMAP
ENDCHAR
STARTCHAR 2116
ENCODING 8470
SWIDTH 1112 0
DWIDTH 51 0
BBX 0 0 0 0
BITMAP
ENDCHAR
STARTCHAR 2122
ENCODING 8482
SWIDTH 741 0
DWIDTH 34 0
BBX 0 0 0 0
BITMAP
ENDCHAR
STARTCHAR 2202
ENCODING 8706
SWIDTH 501 0
DWIDTH 23 0
BBX 0 0 0 0
BITMAP
ENDCHAR
STARTCHAR 2206
ENCODING 8710
SWIDTH 523 0
DWIDTH 24 0
BBX 0 0 0 0
BITMAP
ENDCHAR
STARTCHAR 220F
ENCODING 8719
SWIDTH 741 0
DWIDTH 34 0
BBX 0 0 0 0
BITMAP
ENDCHAR
STARTCHAR 2211
ENCODING 8721
SWIDTH 589 0
DWIDTH 27 0
BBX 0 0 0 0
BITMAP
ENDCHAR
STARTCHAR 2212
ENCODING 8722
SWIDTH 501 0
DWIDTH 23 0
BBX 0 0 0 0
BITMAP
ENDCHAR
STARTCHAR 2215
ENCODING 8725
SWIDTH 174 0
DWIDTH 8 0
BBX 0 0 0 0
BITMAP
ENDCHAR
STARTCHAR 2219
ENCODING 8729
SWIDTH 240 0
DWIDTH 11 0
BBX 0 0 0 0
BITMAP
ENDCHAR
STARTCHAR 221A
ENCODING 8730
SWIDTH 501 0
DWIDTH 23 0
BBX 0 0 0 0
BITMAP
ENDCHAR
STARTCHAR 221E
ENCODING 8734
SWIDTH 501 0
DWIDTH 23 0
BBX 0 0 0 0
BITMAP
ENDCHAR
STARTCHAR 222B
ENCODING 8747
SWIDTH 327 0
DWIDTH 15 0
BBX 0 0 0 0
BITMAP
ENDCHAR
STARTCHAR 2248
ENCODING 8776
SWIDTH 501 0
DWIDTH 23 0
BBX 0 0 0 0
BITMAP
ENDCHAR
STARTCHAR 2264
ENCODING 8804
SWIDTH 501 0
DWIDTH 23 0
BBX 0 0 0 0
BITMAP
ENDCHAR
STARTCHAR 2265
ENCODING 8805
SWIDTH 501 0
DWIDTH 23 0
BBX 0 0 0 0
BITMAP
ENDCHAR
STARTCHAR F001
ENCODING 61441
SWIDTH 523 0
DWIDTH 24 0
BBX 0 0 0 0
BITMAP
ENDCHAR
STARTCHAR F002
ENCODING 61442
SWIDTH 523 0
DWIDTH 24 0
BBX 0 0 0 0
BITMAP
ENDCHAR
STARTCHAR FB01
ENCODING 64257
SWIDTH 523 0
DWIDTH 24 0
BBX 0 0 0 0
BITMAP
ENDCHAR
STARTCHAR FB02
ENCODING 64258
SWIDTH 523 0
DWIDTH 24 0
BBX 0 0 0 0
BITMAP
ENDCHAR
ENDFONT
